<?xml version="1.0" encoding="UTF-8"?>
<!DOCTYPE svg PUBLIC "-//W3C//DTD SVG 1.1//EN" "http://www.w3.org/Graphics/SVG/1.1/DTD/svg11.dtd">
<svg xmlns="http://www.w3.org/2000/svg" version="1.1" width="736px" height="736px" style="shape-rendering:geometricPrecision; text-rendering:geometricPrecision; image-rendering:optimizeQuality; fill-rule:evenodd; clip-rule:evenodd" xmlns:xlink="http://www.w3.org/1999/xlink">
<g><path style="opacity:0.527" fill="#e4e3d7" d="M 553.5,88.5 C 550.982,90.1052 548.149,91.4385 545,92.5C 419.57,91.8215 294.403,91.1549 169.5,90.5C 297.35,89.8245 425.35,89.1579 553.5,88.5 Z"/></g>
<g><path style="opacity:0.998" fill="#f5f3de" d="M 553.5,88.5 C 556.096,89.0549 558.429,90.0549 560.5,91.5C 559.168,101.144 558.501,111.144 558.5,121.5C 558.534,132.531 558.867,143.531 559.5,154.5C 558.233,187.993 557.566,221.66 557.5,255.5C 557.32,201.676 556.82,147.676 556,93.5C 555.617,92.944 555.117,92.6107 554.5,92.5C 550.743,92.0708 547.243,92.7375 544,94.5C 541.26,93.7178 538.426,93.2178 535.5,93C 414.16,92.0894 292.827,92.5894 171.5,94.5C 170.684,98.0804 170.35,101.58 170.5,105C 172.708,105.191 174.708,105.691 176.5,106.5C 172.833,106.5 169.167,106.5 165.5,106.5C 166.219,101.882 166.719,97.2154 167,92.5C 167.708,91.6195 168.542,90.9528 169.5,90.5C 294.403,91.1549 419.57,91.8215 545,92.5C 548.149,91.4385 550.982,90.1052 553.5,88.5 Z"/></g>
<g><path style="opacity:1" fill="#f7f4d2" d="M 554.5,92.5 C 554.5,93.5 554.5,94.5 554.5,95.5C 555.35,183.333 556.017,271.333 556.5,359.5C 555.67,452.832 555.337,546.165 555.5,639.5C 556.5,639.5 557.5,639.5 558.5,639.5C 558.5,640.5 558.5,641.5 558.5,642.5C 430.999,642.167 303.666,642.5 176.5,643.5C 174.076,643.808 171.743,643.474 169.5,642.5C 167.958,637.627 167.292,632.627 167.5,627.5C 170.167,627.5 172.833,627.5 175.5,627.5C 178.962,628.482 182.629,628.815 186.5,628.5C 186.414,629.496 186.748,630.329 187.5,631C 185.559,631.304 183.893,632.137 182.5,633.5C 178.5,631.053 174.167,629.72 169.5,629.5C 168.14,634.75 170.14,637.417 175.5,637.5C 174.482,638.852 173.149,639.852 171.5,640.5C 171.887,641.72 172.72,642.387 174,642.5C 193.141,641.566 212.308,640.733 231.5,640C 229.942,639.79 228.609,639.29 227.5,638.5C 232.937,638.705 238.271,638.038 243.5,636.5C 246.47,637.426 249.47,638.092 252.5,638.5C 252.5,636.167 252.5,633.833 252.5,631.5C 254.167,631.5 255.833,631.5 257.5,631.5C 257.5,628.833 257.5,626.167 257.5,623.5C 258.5,623.5 259.5,623.5 260.5,623.5C 260.5,620.833 260.5,618.167 260.5,615.5C 261.5,615.5 262.5,615.5 263.5,615.5C 263.5,612.833 263.5,610.167 263.5,607.5C 262.5,607.5 261.5,607.5 260.5,607.5C 260.5,602.167 260.5,596.833 260.5,591.5C 261.5,591.5 262.5,591.5 263.5,591.5C 263.5,583.5 263.5,575.5 263.5,567.5C 265.167,567.5 266.833,567.5 268.5,567.5C 268.5,562.167 268.5,556.833 268.5,551.5C 269.5,551.5 270.5,551.5 271.5,551.5C 271.5,540.833 271.5,530.167 271.5,519.5C 273.167,519.5 274.833,519.5 276.5,519.5C 276.5,498.167 276.5,476.833 276.5,455.5C 275.5,455.5 274.5,455.5 273.5,455.5C 273.5,452.833 273.5,450.167 273.5,447.5C 274.5,447.5 275.5,447.5 276.5,447.5C 276.5,444.833 276.5,442.167 276.5,439.5C 277.5,439.5 278.5,439.5 279.5,439.5C 279.5,436.833 279.5,434.167 279.5,431.5C 282.167,431.5 284.833,431.5 287.5,431.5C 287.5,428.833 287.5,426.167 287.5,423.5C 284.833,423.5 282.167,423.5 279.5,423.5C 279.5,420.833 279.5,418.167 279.5,415.5C 278.5,415.5 277.5,415.5 276.5,415.5C 276.5,412.833 276.5,410.167 276.5,407.5C 274.833,407.5 273.167,407.5 271.5,407.5C 271.5,404.833 271.5,402.167 271.5,399.5C 275.833,399.5 280.167,399.5 284.5,399.5C 284.5,396.833 284.5,394.167 284.5,391.5C 282.833,391.5 281.167,391.5 279.5,391.5C 279.5,388.833 279.5,386.167 279.5,383.5C 283.833,383.5 288.167,383.5 292.5,383.5C 292.5,380.833 292.5,378.167 292.5,375.5C 290.833,375.5 289.167,375.5 287.5,375.5C 287.5,373.833 287.5,372.167 287.5,370.5C 284.833,370.5 282.167,370.5 279.5,370.5C 279.5,369.5 279.5,368.5 279.5,367.5C 278.5,367.5 277.5,367.5 276.5,367.5C 276.5,364.833 276.5,362.167 276.5,359.5C 273.833,359.5 271.167,359.5 268.5,359.5C 268.5,356.833 268.5,354.167 268.5,351.5C 269.5,351.5 270.5,351.5 271.5,351.5C 271.5,348.833 271.5,346.167 271.5,343.5C 270.5,343.5 269.5,343.5 268.5,343.5C 268.5,340.833 268.5,338.167 268.5,335.5C 269.5,335.5 270.5,335.5 271.5,335.5C 271.5,332.833 271.5,330.167 271.5,327.5C 269.5,327.5 267.5,327.5 265.5,327.5C 264.833,322.167 264.167,316.833 263.5,311.5C 262.5,311.5 261.5,311.5 260.5,311.5C 260.5,308.833 260.5,306.167 260.5,303.5C 261.5,303.5 262.5,303.5 263.5,303.5C 263.5,298.167 263.5,292.833 263.5,287.5C 262.5,287.5 261.5,287.5 260.5,287.5C 260.262,266.151 260.596,244.817 261.5,223.5C 260.167,223.5 258.833,223.5 257.5,223.5C 256.762,244.821 256.262,266.154 256,287.5C 255.83,276.659 255.33,265.992 254.5,255.5C 253.5,255.5 252.5,255.5 251.5,255.5C 251.5,250.167 251.5,244.833 251.5,239.5C 252.833,239.5 254.167,239.5 255.5,239.5C 255.5,236.833 255.5,234.167 255.5,231.5C 252.833,231.5 250.167,231.5 247.5,231.5C 247.5,223.5 247.5,215.5 247.5,207.5C 244.833,207.5 242.167,207.5 239.5,207.5C 239.5,204.833 239.5,202.167 239.5,199.5C 238.167,199.5 236.833,199.5 235.5,199.5C 235.5,191.5 235.5,183.5 235.5,175.5C 236.833,175.5 238.167,175.5 239.5,175.5C 239.5,172.833 239.5,170.167 239.5,167.5C 236.833,167.5 234.167,167.5 231.5,167.5C 231.5,162.167 231.5,156.833 231.5,151.5C 230.167,151.5 228.833,151.5 227.5,151.5C 227.5,148.833 227.5,146.167 227.5,143.5C 228.833,143.5 230.167,143.5 231.5,143.5C 231.5,135.5 231.5,127.5 231.5,119.5C 228.833,119.5 226.167,119.5 223.5,119.5C 223.5,116.833 223.5,114.167 223.5,111.5C 222.167,111.5 220.833,111.5 219.5,111.5C 219.5,108.833 219.5,106.167 219.5,103.5C 218.167,103.5 216.833,103.5 215.5,103.5C 215.5,100.833 215.5,98.1667 215.5,95.5C 208.808,95.6651 202.141,95.3317 195.5,94.5C 194.167,94.8333 192.833,95.1667 191.5,95.5C 192.246,96.7362 192.579,98.0695 192.5,99.5C 189.436,99.8563 186.769,99.0229 184.5,97C 186.396,95.9354 186.563,95.1021 185,94.5C 181.486,95.795 177.986,95.795 174.5,94.5C 170.637,97.322 170.803,98.9886 175,99.5C 175.216,101.384 175.883,103.051 177,104.5C 179.134,102.516 181.634,101.182 184.5,100.5C 186.262,101.688 187.262,103.355 187.5,105.5C 183.958,105.187 180.625,105.521 177.5,106.5C 177.167,106.5 176.833,106.5 176.5,106.5C 174.708,105.691 172.708,105.191 170.5,105C 170.35,101.58 170.684,98.0804 171.5,94.5C 292.827,92.5894 414.16,92.0894 535.5,93C 538.426,93.2178 541.26,93.7178 544,94.5C 547.243,92.7375 550.743,92.0708 554.5,92.5 Z"/></g>
<g><path style="opacity:1" fill="#f9f6d3" d="M 254.5,255.5 C 254.554,362.19 254.554,468.857 254.5,575.5C 255.977,591.144 256.477,606.81 256,622.5C 255.5,623 255,623.5 254.5,624C 246.841,624.5 239.174,624.666 231.5,624.5C 236.651,623.673 241.984,623.173 247.5,623C 235.171,622.5 222.838,622.333 210.5,622.5C 210.5,620.167 210.5,617.833 210.5,615.5C 211.5,615.5 212.5,615.5 213.5,615.5C 213.5,612.833 213.5,610.167 213.5,607.5C 215.167,607.5 216.833,607.5 218.5,607.5C 218.5,604.833 218.5,602.167 218.5,599.5C 221.167,599.5 223.833,599.5 226.5,599.5C 226.5,594.167 226.5,588.833 226.5,583.5C 228.167,583.5 229.833,583.5 231.5,583.5C 231.478,579.407 230.811,575.407 229.5,571.5C 230.833,566.167 230.833,560.833 229.5,555.5C 230.167,552.833 230.833,550.167 231.5,547.5C 230.833,544.833 230.167,542.167 229.5,539.5C 231.363,524.908 232.029,510.242 231.5,495.5C 232.5,495.5 233.5,495.5 234.5,495.5C 234.5,492.833 234.5,490.167 234.5,487.5C 233.5,487.5 232.5,487.5 231.5,487.5C 231.5,476.833 231.5,466.167 231.5,455.5C 232.5,455.5 233.5,455.5 234.5,455.5C 234.5,447.5 234.5,439.5 234.5,431.5C 233.5,431.5 232.5,431.5 231.5,431.5C 231.5,420.833 231.5,410.167 231.5,399.5C 232.5,399.5 233.5,399.5 234.5,399.5C 234.5,396.833 234.5,394.167 234.5,391.5C 233.5,391.5 232.5,391.5 231.5,391.5C 231.5,386.167 231.5,380.833 231.5,375.5C 232.5,375.5 233.5,375.5 234.5,375.5C 234.5,372.833 234.5,370.167 234.5,367.5C 233.5,367.5 232.5,367.5 231.5,367.5C 231.5,364.833 231.5,362.167 231.5,359.5C 229.833,359.5 228.167,359.5 226.5,359.5C 226.167,354.167 225.833,348.833 225.5,343.5C 228.5,343.5 231.5,343.5 234.5,343.5C 234.5,340.833 234.5,338.167 234.5,335.5C 230.167,335.5 225.833,335.5 221.5,335.5C 222.167,330.167 222.833,324.833 223.5,319.5C 224.5,319.5 225.5,319.5 226.5,319.5C 226.5,316.833 226.5,314.167 226.5,311.5C 225.5,311.5 224.5,311.5 223.5,311.5C 223.821,304.733 223.154,298.066 221.5,291.5C 222.811,287.593 223.478,283.593 223.5,279.5C 224.5,279.5 225.5,279.5 226.5,279.5C 226.5,274.167 226.5,268.833 226.5,263.5C 225.5,263.5 224.5,263.5 223.5,263.5C 223.5,258.167 223.5,252.833 223.5,247.5C 221.833,247.5 220.167,247.5 218.5,247.5C 218.5,244.833 218.5,242.167 218.5,239.5C 220.167,239.5 221.833,239.5 223.5,239.5C 223.5,236.833 223.5,234.167 223.5,231.5C 220.833,231.5 218.167,231.5 215.5,231.5C 215.5,228.833 215.5,226.167 215.5,223.5C 218.167,223.5 220.833,223.5 223.5,223.5C 223.5,219.167 223.5,214.833 223.5,210.5C 220.833,210.5 218.167,210.5 215.5,210.5C 215.337,205.396 216.003,200.396 217.5,195.5C 216.189,191.593 215.522,187.593 215.5,183.5C 213.833,183.5 212.167,183.5 210.5,183.5C 210.5,175.5 210.5,167.5 210.5,159.5C 209.5,159.5 208.5,159.5 207.5,159.5C 206.497,152.823 206.497,146.156 207.5,139.5C 206.189,135.593 205.522,131.593 205.5,127.5C 204.5,127.5 203.5,127.5 202.5,127.5C 202.5,122.167 202.5,116.833 202.5,111.5C 201.5,111.5 200.5,111.5 199.5,111.5C 199.5,108.833 199.5,106.167 199.5,103.5C 197.167,103.5 194.833,103.5 192.5,103.5C 192.5,104.833 192.5,106.167 192.5,107.5C 190.801,107.473 189.467,106.806 188.5,105.5C 188.167,105.5 187.833,105.5 187.5,105.5C 187.262,103.355 186.262,101.688 184.5,100.5C 181.634,101.182 179.134,102.516 177,104.5C 175.883,103.051 175.216,101.384 175,99.5C 170.803,98.9886 170.637,97.322 174.5,94.5C 177.986,95.795 181.486,95.795 185,94.5C 186.563,95.1021 186.396,95.9354 184.5,97C 186.769,99.0229 189.436,99.8563 192.5,99.5C 192.579,98.0695 192.246,96.7362 191.5,95.5C 192.833,95.1667 194.167,94.8333 195.5,94.5C 202.141,95.3317 208.808,95.6651 215.5,95.5C 215.5,98.1667 215.5,100.833 215.5,103.5C 216.833,103.5 218.167,103.5 219.5,103.5C 219.5,106.167 219.5,108.833 219.5,111.5C 220.833,111.5 222.167,111.5 223.5,111.5C 223.5,114.167 223.5,116.833 223.5,119.5C 226.167,119.5 228.833,119.5 231.5,119.5C 231.5,127.5 231.5,135.5 231.5,143.5C 230.167,143.5 228.833,143.5 227.5,143.5C 227.5,146.167 227.5,148.833 227.5,151.5C 228.833,151.5 230.167,151.5 231.5,151.5C 231.5,156.833 231.5,162.167 231.5,167.5C 234.167,167.5 236.833,167.5 239.5,167.5C 239.5,170.167 239.5,172.833 239.5,175.5C 238.167,175.5 236.833,175.5 235.5,175.5C 235.5,183.5 235.5,191.5 235.5,199.5C 236.833,199.5 238.167,199.5 239.5,199.5C 239.5,202.167 239.5,204.833 239.5,207.5C 242.167,207.5 244.833,207.5 247.5,207.5C 247.5,215.5 247.5,223.5 247.5,231.5C 250.167,231.5 252.833,231.5 255.5,231.5C 255.5,234.167 255.5,236.833 255.5,239.5C 254.167,239.5 252.833,239.5 251.5,239.5C 251.5,244.833 251.5,250.167 251.5,255.5C 252.5,255.5 253.5,255.5 254.5,255.5 Z"/></g>
<g><path style="opacity:1" fill="#fbf8d5" d="M 231.5,624.5 C 231.5,626.833 231.5,629.167 231.5,631.5C 230.167,631.5 228.833,631.5 227.5,631.5C 227.5,633.833 227.5,636.167 227.5,638.5C 228.609,639.29 229.942,639.79 231.5,640C 212.308,640.733 193.141,641.566 174,642.5C 172.72,642.387 171.887,641.72 171.5,640.5C 173.149,639.852 174.482,638.852 175.5,637.5C 170.14,637.417 168.14,634.75 169.5,629.5C 174.167,629.72 178.5,631.053 182.5,633.5C 183.893,632.137 185.559,631.304 187.5,631C 186.748,630.329 186.414,629.496 186.5,628.5C 187.117,628.389 187.617,628.056 188,627.5C 188.145,623.477 188.979,619.644 190.5,616C 188.009,615.591 186.009,614.424 184.5,612.5C 181.56,613.304 178.893,614.637 176.5,616.5C 175.201,615.91 174.368,614.91 174,613.5C 173.311,614.357 172.478,615.023 171.5,615.5C 170.52,612.914 170.187,610.247 170.5,607.5C 175.897,607.785 181.23,607.451 186.5,606.5C 187.324,603.215 187.824,599.882 188,596.5C 190.096,595.285 189.929,594.451 187.5,594C 188.448,593.517 189.448,593.351 190.5,593.5C 190.33,592.178 190.663,591.011 191.5,590C 189.167,589.333 186.833,589.333 184.5,590C 185.34,591.666 184.84,591.833 183,590.5C 181.087,593.28 178.587,594.947 175.5,595.5C 173.5,595.5 171.5,595.5 169.5,595.5C 169.674,592.126 170.174,588.793 171,585.5C 173.067,588.014 174.567,587.848 175.5,585C 180.167,584.667 184.833,584.333 189.5,584C 190.167,583.333 190.833,582.667 191.5,582C 189.45,580.364 188.45,578.198 188.5,575.5C 189.5,575.5 190.5,575.5 191.5,575.5C 191.672,573.508 191.005,571.842 189.5,570.5C 183.193,569.669 176.859,569.169 170.5,569C 169.208,566.075 170.042,563.908 173,562.5C 177.455,564.22 181.955,564.553 186.5,563.5C 187.116,559.477 188.783,555.977 191.5,553C 187.651,548.444 182.818,547.278 177,549.5C 175.079,547.997 172.912,547.331 170.5,547.5C 170.037,544.518 169.704,541.518 169.5,538.5C 175.145,539.134 180.811,539.468 186.5,539.5C 187.193,535.435 187.86,531.268 188.5,527C 184.778,526.762 181.111,526.262 177.5,525.5C 172.005,528.981 170.005,527.647 171.5,521.5C 172.274,520.289 173.107,520.289 174,521.5C 175.32,518.099 177.82,516.765 181.5,517.5C 183.715,517.67 185.715,518.337 187.5,519.5C 188.724,518.234 190.057,517.067 191.5,516C 190.833,515.667 190.167,515.333 189.5,515C 192.128,510.887 192.128,507.22 189.5,504C 191.146,501.405 191.813,498.572 191.5,495.5C 190.325,495.719 189.325,495.386 188.5,494.5C 189.171,492.493 190.171,490.66 191.5,489C 190.351,487.27 190.351,485.604 191.5,484C 189.726,483.03 187.893,482.196 186,481.5C 182.684,481.507 179.35,481.507 176,481.5C 174.364,479.45 172.198,478.45 169.5,478.5C 169.286,476.856 169.62,475.356 170.5,474C 174.155,473.359 177.655,473.859 181,475.5C 184.297,475.309 187.13,474.142 189.5,472C 189.285,466.673 187.785,461.839 185,457.5C 180.667,458.167 176.333,458.833 172,459.5C 170.318,458.135 170.151,456.635 171.5,455C 176.773,453.082 182.273,451.915 188,451.5C 189.171,450.66 190.338,449.827 191.5,449C 190.552,448.517 189.552,448.351 188.5,448.5C 189.99,444.771 189.657,441.271 187.5,438C 183.476,437.503 179.476,437.669 175.5,438.5C 172.741,429.479 175.575,427.146 184,431.5C 185.559,430.971 187.059,430.304 188.5,429.5C 189.655,426.554 189.821,423.554 189,420.5C 188.623,419.058 187.79,418.058 186.5,417.5C 186.389,416.883 186.056,416.383 185.5,416C 182.183,415.502 178.85,415.335 175.5,415.5C 175.5,413.833 175.5,412.167 175.5,410.5C 178.522,410.196 181.522,409.696 184.5,409C 185.823,408.184 186.489,407.017 186.5,405.5C 187.482,402.038 187.815,398.371 187.5,394.5C 183.629,394.185 179.962,394.518 176.5,395.5C 173.5,395.5 170.5,395.5 167.5,395.5C 167.5,391.5 167.5,387.5 167.5,383.5C 170.5,383.5 173.5,383.5 176.5,383.5C 179.833,383.5 183.167,383.5 186.5,383.5C 187.482,380.038 187.815,376.371 187.5,372.5C 183.298,372.183 179.298,372.517 175.5,373.5C 172.833,373.5 170.167,373.5 167.5,373.5C 167.5,369.5 167.5,365.5 167.5,361.5C 174.022,361.823 180.355,361.49 186.5,360.5C 187.479,357.375 187.813,354.042 187.5,350.5C 180.833,350.5 174.167,350.5 167.5,350.5C 167.335,347.482 167.502,344.482 168,341.5C 168.333,343.5 168.667,345.5 169,347.5C 169.198,345.618 169.698,343.952 170.5,342.5C 175.12,341.678 179.953,341.678 185,342.5C 190.305,340.607 191.472,337.44 188.5,333C 188.95,331.715 189.617,330.548 190.5,329.5C 188.972,328.139 187.305,326.972 185.5,326C 180.39,325.43 175.39,325.93 170.5,327.5C 169.908,324.873 169.575,322.206 169.5,319.5C 172.545,319.296 175.379,319.296 178,319.5C 178.5,319 179,318.5 179.5,318C 182.833,317.667 186.167,317.333 189.5,317C 190.308,316.692 190.975,316.192 191.5,315.5C 190.123,313.711 189.123,311.711 188.5,309.5C 188.968,307.866 189.968,306.7 191.5,306C 188.456,305.641 188.122,304.974 190.5,304C 183.943,303.799 177.276,303.632 170.5,303.5C 170.523,301.073 171.023,298.74 172,296.5C 172.667,297.167 173.333,297.833 174,298.5C 175.133,296.789 176.633,296.289 178.5,297C 180.876,300.334 183.543,300.834 186.5,298.5C 188.968,294.094 190.635,289.427 191.5,284.5C 188.577,282.794 185.411,281.461 182,280.5C 178.814,281.121 175.648,281.788 172.5,282.5C 168.424,279.496 168.59,276.829 173,274.5C 178.615,275.508 184.115,275.008 189.5,273C 189.833,272.667 190.167,272.333 190.5,272C 189.653,267.895 188.987,263.728 188.5,259.5C 184.528,258.892 180.528,258.392 176.5,258C 173.54,254.749 174.207,252.582 178.5,251.5C 181.518,252.589 184.351,253.255 187,253.5C 187.785,251.714 188.951,250.214 190.5,249C 188.638,245.851 187.971,242.351 188.5,238.5C 182.777,238.136 177.11,237.303 171.5,236C 170.594,234.301 170.261,232.467 170.5,230.5C 172.792,230.756 174.959,230.423 177,229.5C 186.178,234.979 190.011,232.479 188.5,222C 190.806,219.022 190.139,216.522 186.5,214.5C 183.522,213.351 180.522,213.351 177.5,214.5C 175.575,214.41 174.408,213.41 174,211.5C 173.667,212.5 173.333,213.5 173,214.5C 171.798,212.323 171.298,209.989 171.5,207.5C 175.617,208.137 179.784,207.804 184,206.5C 185.995,208.747 188.495,209.747 191.5,209.5C 189.645,204.98 188.312,200.313 187.5,195.5C 182.132,194.152 176.799,193.152 171.5,192.5C 168.205,186.927 169.871,183.927 176.5,183.5C 180.167,183.5 183.833,183.5 187.5,183.5C 187.5,179.833 187.5,176.167 187.5,172.5C 187.586,171.504 187.252,170.671 186.5,170C 181.833,169.667 177.167,169.333 172.5,169C 168.205,164.978 168.872,162.812 174.5,162.5C 178.518,163.074 182.518,163.741 186.5,164.5C 188.569,164.176 188.902,163.342 187.5,162C 189.217,157.304 190.05,152.471 190,147.5C 186.295,147.097 182.795,146.93 179.5,147C 176.778,145.728 175.444,143.561 175.5,140.5C 178.5,140.5 181.5,140.5 184.5,140.5C 184.222,142.346 184.889,143.68 186.5,144.5C 188.655,139.683 190.321,135.017 191.5,130.5C 190.687,129.186 189.687,128.019 188.5,127C 185.242,126.788 182.076,126.288 179,125.5C 177.062,126.86 175.396,126.527 174,124.5C 172.887,125.711 171.72,125.711 170.5,124.5C 167.768,118.148 169.768,115.482 176.5,116.5C 180.167,116.5 183.833,116.5 187.5,116.5C 188.482,113.038 188.815,109.371 188.5,105.5C 189.467,106.806 190.801,107.473 192.5,107.5C 192.5,106.167 192.5,104.833 192.5,103.5C 194.833,103.5 197.167,103.5 199.5,103.5C 199.5,106.167 199.5,108.833 199.5,111.5C 200.5,111.5 201.5,111.5 202.5,111.5C 202.5,116.833 202.5,122.167 202.5,127.5C 203.5,127.5 204.5,127.5 205.5,127.5C 205.522,131.593 206.189,135.593 207.5,139.5C 206.497,146.156 206.497,152.823 207.5,159.5C 208.5,159.5 209.5,159.5 210.5,159.5C 210.5,167.5 210.5,175.5 210.5,183.5C 212.167,183.5 213.833,183.5 215.5,183.5C 215.522,187.593 216.189,191.593 217.5,195.5C 216.003,200.396 215.337,205.396 215.5,210.5C 218.167,210.5 220.833,210.5 223.5,210.5C 223.5,214.833 223.5,219.167 223.5,223.5C 220.833,223.5 218.167,223.5 215.5,223.5C 215.5,226.167 215.5,228.833 215.5,231.5C 218.167,231.5 220.833,231.5 223.5,231.5C 223.5,234.167 223.5,236.833 223.5,239.5C 221.833,239.5 220.167,239.5 218.5,239.5C 218.5,242.167 218.5,244.833 218.5,247.5C 220.167,247.5 221.833,247.5 223.5,247.5C 223.5,252.833 223.5,258.167 223.5,263.5C 224.5,263.5 225.5,263.5 226.5,263.5C 226.5,268.833 226.5,274.167 226.5,279.5C 225.5,279.5 224.5,279.5 223.5,279.5C 223.478,283.593 222.811,287.593 221.5,291.5C 223.154,298.066 223.821,304.733 223.5,311.5C 224.5,311.5 225.5,311.5 226.5,311.5C 226.5,314.167 226.5,316.833 226.5,319.5C 225.5,319.5 224.5,319.5 223.5,319.5C 222.833,324.833 222.167,330.167 221.5,335.5C 225.833,335.5 230.167,335.5 234.5,335.5C 234.5,338.167 234.5,340.833 234.5,343.5C 231.5,343.5 228.5,343.5 225.5,343.5C 225.833,348.833 226.167,354.167 226.5,359.5C 228.167,359.5 229.833,359.5 231.5,359.5C 231.5,362.167 231.5,364.833 231.5,367.5C 232.5,367.5 233.5,367.5 234.5,367.5C 234.5,370.167 234.5,372.833 234.5,375.5C 233.5,375.5 232.5,375.5 231.5,375.5C 231.5,380.833 231.5,386.167 231.5,391.5C 232.5,391.5 233.5,391.5 234.5,391.5C 234.5,394.167 234.5,396.833 234.5,399.5C 233.5,399.5 232.5,399.5 231.5,399.5C 231.5,410.167 231.5,420.833 231.5,431.5C 232.5,431.5 233.5,431.5 234.5,431.5C 234.5,439.5 234.5,447.5 234.5,455.5C 233.5,455.5 232.5,455.5 231.5,455.5C 231.5,466.167 231.5,476.833 231.5,487.5C 232.5,487.5 233.5,487.5 234.5,487.5C 234.5,490.167 234.5,492.833 234.5,495.5C 233.5,495.5 232.5,495.5 231.5,495.5C 232.029,510.242 231.363,524.908 229.5,539.5C 230.167,542.167 230.833,544.833 231.5,547.5C 230.833,550.167 230.167,552.833 229.5,555.5C 230.833,560.833 230.833,566.167 229.5,571.5C 230.811,575.407 231.478,579.407 231.5,583.5C 229.833,583.5 228.167,583.5 226.5,583.5C 226.5,588.833 226.5,594.167 226.5,599.5C 223.833,599.5 221.167,599.5 218.5,599.5C 218.5,602.167 218.5,604.833 218.5,607.5C 216.833,607.5 215.167,607.5 213.5,607.5C 213.5,610.167 213.5,612.833 213.5,615.5C 212.5,615.5 211.5,615.5 210.5,615.5C 210.5,617.833 210.5,620.167 210.5,622.5C 222.838,622.333 235.171,622.5 247.5,623C 241.984,623.173 236.651,623.673 231.5,624.5 Z"/></g>
<g><path style="opacity:0.697" fill="#7f7f79" d="M 165.5,106.5 C 169.167,106.5 172.833,106.5 176.5,106.5C 176.833,106.5 177.167,106.5 177.5,106.5C 174.359,107.321 171.025,107.821 167.5,108C 172.351,108.174 177.018,108.674 181.5,109.5C 180.5,109.5 179.5,109.5 178.5,109.5C 174.029,108.911 170.029,109.577 166.5,111.5C 162.774,111.823 159.107,111.489 155.5,110.5C 156.025,109.808 156.692,109.308 157.5,109C 155.866,108.506 154.199,108.34 152.5,108.5C 152.5,109.5 152.5,110.5 152.5,111.5C 152.167,111.5 151.833,111.5 151.5,111.5C 150.209,110.458 150.209,109.292 151.5,108C 153.101,107.727 154.601,107.227 156,106.5C 159.071,107.138 162.237,107.138 165.5,106.5 Z"/></g>
<g><path style="opacity:0.09" fill="#dadada" d="M 151.5,111.5 C 151.833,111.5 152.167,111.5 152.5,111.5C 152.842,112.338 153.508,112.672 154.5,112.5C 154.833,113.167 155.167,113.833 155.5,114.5C 154.041,114.433 152.708,114.766 151.5,115.5C 151.5,114.167 151.5,112.833 151.5,111.5 Z"/></g>
<g><path style="opacity:1" fill="#a7a892" d="M 177.5,106.5 C 180.625,105.521 183.958,105.187 187.5,105.5C 187.833,105.5 188.167,105.5 188.5,105.5C 188.815,109.371 188.482,113.038 187.5,116.5C 187.5,116.167 187.5,115.833 187.5,115.5C 187.5,112.5 187.5,109.5 187.5,106.5C 184.167,106.5 180.833,106.5 177.5,106.5 Z"/></g>
<g><path style="opacity:1" fill="#757874" d="M 154.5,112.5 C 157.167,112.5 159.833,112.5 162.5,112.5C 162.5,113.5 162.5,114.5 162.5,115.5C 163.833,115.5 165.167,115.5 166.5,115.5C 166.5,116.167 166.5,116.833 166.5,117.5C 162.818,117.665 159.152,117.499 155.5,117C 157.842,115.608 157.842,114.775 155.5,114.5C 155.167,113.833 154.833,113.167 154.5,112.5 Z"/></g>
<g><path style="opacity:1" fill="#75725f" d="M 166.5,115.5 C 173.328,114.741 180.328,114.741 187.5,115.5C 187.5,115.833 187.5,116.167 187.5,116.5C 183.833,116.5 180.167,116.5 176.5,116.5C 174.393,115.532 172.059,115.198 169.5,115.5C 168.5,115.5 167.5,115.5 166.5,115.5 Z"/></g>
<g><path style="opacity:1" fill="#3c3b34" d="M 177.5,106.5 C 180.833,106.5 184.167,106.5 187.5,106.5C 187.5,109.5 187.5,112.5 187.5,115.5C 180.328,114.741 173.328,114.741 166.5,115.5C 165.167,115.5 163.833,115.5 162.5,115.5C 162.5,114.5 162.5,113.5 162.5,112.5C 159.833,112.5 157.167,112.5 154.5,112.5C 153.508,112.672 152.842,112.338 152.5,111.5C 152.5,110.5 152.5,109.5 152.5,108.5C 154.199,108.34 155.866,108.506 157.5,109C 156.692,109.308 156.025,109.808 155.5,110.5C 159.107,111.489 162.774,111.823 166.5,111.5C 166.5,111.833 166.5,112.167 166.5,112.5C 171.305,113.487 176.305,113.821 181.5,113.5C 181.5,112.167 181.5,110.833 181.5,109.5C 177.018,108.674 172.351,108.174 167.5,108C 171.025,107.821 174.359,107.321 177.5,106.5 Z"/></g>
<g><path style="opacity:1" fill="#bbb9b0" d="M 178.5,109.5 C 179.5,109.5 180.5,109.5 181.5,109.5C 181.5,110.833 181.5,112.167 181.5,113.5C 176.305,113.821 171.305,113.487 166.5,112.5C 170.846,112.666 175.179,112.499 179.5,112C 178.748,111.329 178.414,110.496 178.5,109.5 Z"/></g>
<g><path style="opacity:1" fill="#f3f1e1" d="M 178.5,109.5 C 178.414,110.496 178.748,111.329 179.5,112C 175.179,112.499 170.846,112.666 166.5,112.5C 166.5,112.167 166.5,111.833 166.5,111.5C 170.029,109.577 174.029,108.911 178.5,109.5 Z"/></g>
<g><path style="opacity:0.718" fill="#373937" d="M 155.5,114.5 C 157.842,114.775 157.842,115.608 155.5,117C 159.152,117.499 162.818,117.665 166.5,117.5C 164.012,119.388 161.012,120.055 157.5,119.5C 154.122,120.109 152.122,118.776 151.5,115.5C 152.708,114.766 154.041,114.433 155.5,114.5 Z"/></g>
<g><path style="opacity:1" fill="#d4d4c9" d="M 166.5,115.5 C 167.5,115.5 168.5,115.5 169.5,115.5C 168.57,119.4 168.237,123.4 168.5,127.5C 175.022,127.177 181.355,127.51 187.5,128.5C 185.167,128.5 182.833,128.5 180.5,128.5C 175.167,128.5 169.833,128.5 164.5,128.5C 167.036,121.703 164.703,118.703 157.5,119.5C 161.012,120.055 164.012,119.388 166.5,117.5C 166.5,116.833 166.5,116.167 166.5,115.5 Z"/></g>
<g><path style="opacity:0.843" fill="#6c6c69" d="M 155.5,129.5 C 158.287,128.523 161.287,128.19 164.5,128.5C 169.833,128.5 175.167,128.5 180.5,128.5C 175.833,129.167 171.167,129.833 166.5,130.5C 166.5,130.833 166.5,131.167 166.5,131.5C 166.5,131.833 166.5,132.167 166.5,132.5C 163.753,132.813 161.086,132.48 158.5,131.5C 158.709,130.914 159.043,130.414 159.5,130C 158.207,129.51 156.873,129.343 155.5,129.5 Z"/></g>
<g><path style="opacity:1" fill="#3d3d3d" d="M 155.5,129.5 C 156.873,129.343 158.207,129.51 159.5,130C 159.043,130.414 158.709,130.914 158.5,131.5C 161.086,132.48 163.753,132.813 166.5,132.5C 166.5,133.167 166.5,133.833 166.5,134.5C 161.482,134.387 156.482,134.053 151.5,133.5C 151.5,132.167 151.5,130.833 151.5,129.5C 152.833,129.5 154.167,129.5 155.5,129.5 Z"/></g>
<g><path style="opacity:1" fill="#f3f2e2" d="M 166.5,131.5 C 170.514,131.334 174.514,131.501 178.5,132C 177.695,133.113 177.028,134.279 176.5,135.5C 173.167,135.5 169.833,135.5 166.5,135.5C 166.5,135.167 166.5,134.833 166.5,134.5C 166.5,133.833 166.5,133.167 166.5,132.5C 166.5,132.167 166.5,131.833 166.5,131.5 Z"/></g>
<g><path style="opacity:1" fill="#bbb9b2" d="M 166.5,131.5 C 166.5,131.167 166.5,130.833 166.5,130.5C 171.179,130.334 175.845,130.501 180.5,131C 181.38,132.356 181.714,133.856 181.5,135.5C 179.833,135.5 178.167,135.5 176.5,135.5C 177.028,134.279 177.695,133.113 178.5,132C 174.514,131.501 170.514,131.334 166.5,131.5 Z"/></g>
<g><path style="opacity:0.196" fill="#bfbebf" d="M 151.5,133.5 C 156.482,134.053 161.482,134.387 166.5,134.5C 166.5,134.833 166.5,135.167 166.5,135.5C 163.287,135.19 160.287,135.523 157.5,136.5C 156.127,136.343 154.793,136.51 153.5,137C 152.402,137.77 152.402,138.603 153.5,139.5C 152.005,139.585 151.005,138.919 150.5,137.5C 151.246,136.264 151.579,134.93 151.5,133.5 Z"/></g>
<g><path style="opacity:1" fill="#706f70" d="M 157.5,136.5 C 160.287,135.523 163.287,135.19 166.5,135.5C 165.688,136.993 164.355,137.66 162.5,137.5C 160.793,137.272 159.126,136.938 157.5,136.5 Z"/></g>
<g><path style="opacity:1" fill="#423f36" d="M 180.5,128.5 C 182.833,128.5 185.167,128.5 187.5,128.5C 187.5,131.833 187.5,135.167 187.5,138.5C 180.496,138.227 173.496,137.894 166.5,137.5C 166.5,138.5 166.5,139.5 166.5,140.5C 163.167,140.5 159.833,140.5 156.5,140.5C 155.209,140.737 154.209,140.404 153.5,139.5C 152.402,138.603 152.402,137.77 153.5,137C 154.793,136.51 156.127,136.343 157.5,136.5C 159.126,136.938 160.793,137.272 162.5,137.5C 164.355,137.66 165.688,136.993 166.5,135.5C 169.833,135.5 173.167,135.5 176.5,135.5C 178.167,135.5 179.833,135.5 181.5,135.5C 181.714,133.856 181.38,132.356 180.5,131C 175.845,130.501 171.179,130.334 166.5,130.5C 171.167,129.833 175.833,129.167 180.5,128.5 Z"/></g>
<g><path style="opacity:0.386" fill="#c6c5c6" d="M 156.5,140.5 C 159.833,140.5 163.167,140.5 166.5,140.5C 166.5,143.833 166.5,147.167 166.5,150.5C 165.833,150.5 165.167,150.5 164.5,150.5C 163.167,150.5 161.833,150.5 160.5,150.5C 161.568,149.566 162.901,149.232 164.5,149.5C 164.663,147.143 164.497,144.81 164,142.5C 161.393,141.877 158.893,141.21 156.5,140.5 Z"/></g>
<g><path style="opacity:1" fill="#f4f2d9" d="M 169.5,115.5 C 172.059,115.198 174.393,115.532 176.5,116.5C 169.768,115.482 167.768,118.148 170.5,124.5C 171.72,125.711 172.887,125.711 174,124.5C 175.396,126.527 177.062,126.86 179,125.5C 182.076,126.288 185.242,126.788 188.5,127C 189.687,128.019 190.687,129.186 191.5,130.5C 190.321,135.017 188.655,139.683 186.5,144.5C 184.889,143.68 184.222,142.346 184.5,140.5C 181.5,140.5 178.5,140.5 175.5,140.5C 175.444,143.561 176.778,145.728 179.5,147C 182.795,146.93 186.295,147.097 190,147.5C 190.05,152.471 189.217,157.304 187.5,162C 188.902,163.342 188.569,164.176 186.5,164.5C 182.518,163.741 178.518,163.074 174.5,162.5C 168.872,162.812 168.205,164.978 172.5,169C 177.167,169.333 181.833,169.667 186.5,170C 187.252,170.671 187.586,171.504 187.5,172.5C 180.5,172.5 173.5,172.5 166.5,172.5C 166.5,169.167 166.5,165.833 166.5,162.5C 166.5,161.5 166.5,160.5 166.5,159.5C 173.496,159.894 180.496,160.227 187.5,160.5C 187.5,157.167 187.5,153.833 187.5,150.5C 180.5,150.5 173.5,150.5 166.5,150.5C 166.5,147.167 166.5,143.833 166.5,140.5C 166.5,139.5 166.5,138.5 166.5,137.5C 173.496,137.894 180.496,138.227 187.5,138.5C 187.5,135.167 187.5,131.833 187.5,128.5C 181.355,127.51 175.022,127.177 168.5,127.5C 168.237,123.4 168.57,119.4 169.5,115.5 Z"/></g>
<g><path style="opacity:0.057" fill="#cacaca" d="M 561.5,92.5 C 562.483,119.789 562.816,147.122 562.5,174.5C 561.821,147.807 561.154,120.973 560.5,94C 560.57,93.2352 560.903,92.7352 561.5,92.5 Z"/></g>
<g><path style="opacity:0.533" fill="#898989" d="M 160.5,150.5 C 161.833,150.5 163.167,150.5 164.5,150.5C 163.252,152.69 161.586,153.023 159.5,151.5C 157.073,151.523 154.74,152.023 152.5,153C 153.056,153.383 153.389,153.883 153.5,154.5C 152.833,154.5 152.167,154.5 151.5,154.5C 151.5,153.5 151.5,152.5 151.5,151.5C 154.455,150.841 157.455,150.508 160.5,150.5 Z"/></g>
<g><path style="opacity:1" fill="#2c2c2b" d="M 159.5,151.5 C 159.5,152.5 159.5,153.5 159.5,154.5C 161.833,154.5 164.167,154.5 166.5,154.5C 166.5,154.833 166.5,155.167 166.5,155.5C 163.5,155.5 160.5,155.5 157.5,155.5C 155.901,155.768 154.568,155.434 153.5,154.5C 153.389,153.883 153.056,153.383 152.5,153C 154.74,152.023 157.073,151.523 159.5,151.5 Z"/></g>
<g><path style="opacity:1" fill="#b6b6b3" d="M 177.5,153.5 C 178.833,153.5 180.167,153.5 181.5,153.5C 181.5,154.833 181.5,156.167 181.5,157.5C 179.5,157.5 177.5,157.5 175.5,157.5C 176.806,156.533 177.473,155.199 177.5,153.5 Z"/></g>
<g><path style="opacity:1" fill="#e5e2d2" d="M 177.5,153.5 C 177.473,155.199 176.806,156.533 175.5,157.5C 171.988,158.055 168.988,157.388 166.5,155.5C 166.5,155.167 166.5,154.833 166.5,154.5C 169.771,152.158 173.438,151.824 177.5,153.5 Z"/></g>
<g><path style="opacity:1" fill="#d3d4d3" d="M 151.5,154.5 C 152.167,154.5 152.833,154.5 153.5,154.5C 154.568,155.434 155.901,155.768 157.5,155.5C 158.609,156.29 159.942,156.79 161.5,157C 159.292,157.191 157.292,157.691 155.5,158.5C 152.993,158.632 152.326,159.632 153.5,161.5C 151.656,159.721 150.99,157.388 151.5,154.5 Z"/></g>
<g><path style="opacity:1" fill="#4e4d46" d="M 164.5,150.5 C 165.167,150.5 165.833,150.5 166.5,150.5C 173.5,150.5 180.5,150.5 187.5,150.5C 187.5,153.833 187.5,157.167 187.5,160.5C 180.496,160.227 173.496,159.894 166.5,159.5C 166.5,160.5 166.5,161.5 166.5,162.5C 164.167,162.5 161.833,162.5 159.5,162.5C 157.265,162.795 155.265,162.461 153.5,161.5C 157.514,161.666 161.514,161.499 165.5,161C 162.443,159.236 159.11,158.402 155.5,158.5C 157.292,157.691 159.292,157.191 161.5,157C 159.942,156.79 158.609,156.29 157.5,155.5C 160.5,155.5 163.5,155.5 166.5,155.5C 168.988,157.388 171.988,158.055 175.5,157.5C 177.5,157.5 179.5,157.5 181.5,157.5C 181.5,156.167 181.5,154.833 181.5,153.5C 180.167,153.5 178.833,153.5 177.5,153.5C 173.438,151.824 169.771,152.158 166.5,154.5C 164.167,154.5 161.833,154.5 159.5,154.5C 159.5,153.5 159.5,152.5 159.5,151.5C 161.586,153.023 163.252,152.69 164.5,150.5 Z"/></g>
<g><path style="opacity:0.953" fill="#2a2a2a" d="M 155.5,158.5 C 159.11,158.402 162.443,159.236 165.5,161C 161.514,161.499 157.514,161.666 153.5,161.5C 152.326,159.632 152.993,158.632 155.5,158.5 Z"/></g>
<g><path style="opacity:0.26" fill="#bcbbbb" d="M 159.5,162.5 C 161.833,162.5 164.167,162.5 166.5,162.5C 166.5,165.833 166.5,169.167 166.5,172.5C 165.833,172.5 165.5,172.833 165.5,173.5C 162.167,173.5 158.833,173.5 155.5,173.5C 158.699,172.909 161.866,171.909 165,170.5C 166.347,165.505 164.513,162.838 159.5,162.5 Z"/></g>
<g><path style="opacity:1" fill="#797766" d="M 165.5,173.5 C 165.5,172.833 165.833,172.5 166.5,172.5C 173.5,172.5 180.5,172.5 187.5,172.5C 187.5,176.167 187.5,179.833 187.5,183.5C 183.833,183.5 180.167,183.5 176.5,183.5C 176.5,183.167 176.5,182.833 176.5,182.5C 179.833,182.5 183.167,182.5 186.5,182.5C 186.5,179.5 186.5,176.5 186.5,173.5C 179.5,173.5 172.5,173.5 165.5,173.5 Z"/></g>
<g><path style="opacity:1" fill="#3d3b36" d="M 155.5,173.5 C 158.833,173.5 162.167,173.5 165.5,173.5C 172.5,173.5 179.5,173.5 186.5,173.5C 186.5,176.5 186.5,179.5 186.5,182.5C 183.167,182.5 179.833,182.5 176.5,182.5C 173.5,181.833 170.5,181.167 167.5,180.5C 171.846,180.666 176.179,180.499 180.5,180C 181.38,178.644 181.714,177.144 181.5,175.5C 176.851,174.705 172.184,174.539 167.5,175C 166.748,175.671 166.414,176.504 166.5,177.5C 163.5,177.5 160.5,177.5 157.5,177.5C 155.435,177.483 153.435,177.15 151.5,176.5C 151.694,174.088 153.027,173.088 155.5,173.5 Z"/></g>
<g><path style="opacity:1" fill="#dcdaca" d="M 167.5,180.5 C 167.167,180.5 166.833,180.5 166.5,180.5C 166.5,179.5 166.5,178.5 166.5,177.5C 166.414,176.504 166.748,175.671 167.5,175C 172.184,174.539 176.851,174.705 181.5,175.5C 181.714,177.144 181.38,178.644 180.5,180C 176.179,180.499 171.846,180.666 167.5,180.5 Z"/></g>
<g><path style="opacity:1" fill="#dcdcdc" d="M 151.5,176.5 C 153.435,177.15 155.435,177.483 157.5,177.5C 158.609,178.29 159.942,178.79 161.5,179C 159.942,179.21 158.609,179.71 157.5,180.5C 155.833,180.5 154.167,180.5 152.5,180.5C 152.5,181.5 152.5,182.5 152.5,183.5C 151.785,181.166 151.452,178.833 151.5,176.5 Z"/></g>
<g><path style="opacity:1" fill="#9e9e9f" d="M 157.5,177.5 C 160.5,177.5 163.5,177.5 166.5,177.5C 166.5,178.5 166.5,179.5 166.5,180.5C 164.5,180.5 162.5,180.5 160.5,180.5C 159.5,180.5 158.5,180.5 157.5,180.5C 158.609,179.71 159.942,179.21 161.5,179C 159.942,178.79 158.609,178.29 157.5,177.5 Z"/></g>
<g><path style="opacity:1" fill="#5f5e5c" d="M 160.5,180.5 C 162.5,180.5 164.5,180.5 166.5,180.5C 166.833,180.5 167.167,180.5 167.5,180.5C 170.5,181.167 173.5,181.833 176.5,182.5C 171.985,182.272 167.652,182.938 163.5,184.5C 160.287,184.81 157.287,184.477 154.5,183.5C 158.182,183.665 161.848,183.499 165.5,183C 163.256,182.95 161.589,182.117 160.5,180.5 Z"/></g>
<g><path style="opacity:0.847" fill="#333333" d="M 157.5,180.5 C 158.5,180.5 159.5,180.5 160.5,180.5C 161.589,182.117 163.256,182.95 165.5,183C 161.848,183.499 158.182,183.665 154.5,183.5C 153.833,183.5 153.167,183.5 152.5,183.5C 152.5,182.5 152.5,181.5 152.5,180.5C 154.167,180.5 155.833,180.5 157.5,180.5 Z"/></g>
<g><path style="opacity:1" fill="#f5f3cd" d="M 554.5,95.5 C 554.326,183.519 554.326,271.519 554.5,359.5C 553.5,359.5 552.5,359.5 551.5,359.5C 551.501,351.488 551.834,343.488 552.5,335.5C 551.546,295.341 550.879,255.174 550.5,215C 551.333,175.501 551.5,136.001 551,96.5C 549.795,95.9288 548.628,95.2621 547.5,94.5C 549.99,93.3679 552.324,93.7012 554.5,95.5 Z"/></g>
<g><path style="opacity:1" fill="#e9e7d5" d="M 176.5,182.5 C 176.5,182.833 176.5,183.167 176.5,183.5C 169.871,183.927 168.205,186.927 171.5,192.5C 176.799,193.152 182.132,194.152 187.5,195.5C 183.833,195.5 180.167,195.5 176.5,195.5C 172.167,195.5 167.833,195.5 163.5,195.5C 166.167,191.833 166.167,188.167 163.5,184.5C 167.652,182.938 171.985,182.272 176.5,182.5 Z"/></g>
<g><path style="opacity:0.659" fill="#807f7b" d="M 163.5,195.5 C 167.833,195.5 172.167,195.5 176.5,195.5C 172.004,196.34 167.337,197.007 162.5,197.5C 159.417,196.026 156.417,196.193 153.5,198C 156.365,198.183 159.031,198.683 161.5,199.5C 158.5,199.5 155.5,199.5 152.5,199.5C 152.5,198.5 152.5,197.5 152.5,196.5C 155.563,195.799 158.73,195.132 162,194.5C 162.383,195.056 162.883,195.389 163.5,195.5 Z"/></g>
<g><path style="opacity:0.525" fill="#cececd" d="M 152.5,196.5 C 152.5,197.5 152.5,198.5 152.5,199.5C 155.5,199.5 158.5,199.5 161.5,199.5C 163.167,199.5 164.833,199.5 166.5,199.5C 166.5,200.5 166.5,201.5 166.5,202.5C 162.298,202.183 158.298,202.517 154.5,203.5C 153.167,203.5 152.5,204.167 152.5,205.5C 151.167,202.5 151.167,199.5 152.5,196.5 Z"/></g>
<g><path style="opacity:1" fill="#f2f1e1" d="M 166.5,198.5 C 170.167,198.5 173.833,198.5 177.5,198.5C 177.567,199.959 177.234,201.292 176.5,202.5C 173.167,202.5 169.833,202.5 166.5,202.5C 166.5,201.5 166.5,200.5 166.5,199.5C 166.5,199.167 166.5,198.833 166.5,198.5 Z"/></g>
<g><path style="opacity:1" fill="#adada6" d="M 166.5,198.5 C 170.97,197.514 175.637,197.181 180.5,197.5C 180.5,199.167 180.5,200.833 180.5,202.5C 179.167,202.5 177.833,202.5 176.5,202.5C 177.234,201.292 177.567,199.959 177.5,198.5C 173.833,198.5 170.167,198.5 166.5,198.5 Z"/></g>
<g><path style="opacity:0.969" fill="#6e6e69" d="M 154.5,203.5 C 158.298,202.517 162.298,202.183 166.5,202.5C 169.833,202.5 173.167,202.5 176.5,202.5C 173.5,203.167 170.5,203.833 167.5,204.5C 167.5,204.833 167.5,205.167 167.5,205.5C 167.167,205.5 166.833,205.5 166.5,205.5C 162.705,204.383 158.705,203.717 154.5,203.5 Z"/></g>
<g><path style="opacity:1" fill="#434038" d="M 176.5,195.5 C 180.167,195.5 183.833,195.5 187.5,195.5C 187.5,198.833 187.5,202.167 187.5,205.5C 180.826,205.287 174.159,204.954 167.5,204.5C 170.5,203.833 173.5,203.167 176.5,202.5C 177.833,202.5 179.167,202.5 180.5,202.5C 180.5,200.833 180.5,199.167 180.5,197.5C 175.637,197.181 170.97,197.514 166.5,198.5C 166.5,198.833 166.5,199.167 166.5,199.5C 164.833,199.5 163.167,199.5 161.5,199.5C 159.031,198.683 156.365,198.183 153.5,198C 156.417,196.193 159.417,196.026 162.5,197.5C 167.337,197.007 172.004,196.34 176.5,195.5 Z"/></g>
<g><path style="opacity:0.549" fill="#3c3c3d" d="M 154.5,203.5 C 158.705,203.717 162.705,204.383 166.5,205.5C 162.5,205.5 158.5,205.5 154.5,205.5C 153.833,205.5 153.167,205.5 152.5,205.5C 152.5,204.167 153.167,203.5 154.5,203.5 Z"/></g>
<g><path style="opacity:0.625" fill="#c7c5c4" d="M 154.5,205.5 C 158.5,205.5 162.5,205.5 166.5,205.5C 166.833,205.5 167.167,205.5 167.5,205.5C 167.5,209.5 167.5,213.5 167.5,217.5C 166.5,217.5 165.5,217.5 164.5,217.5C 166.141,214.113 166.474,210.446 165.5,206.5C 161.629,206.815 157.962,206.482 154.5,205.5 Z"/></g>
<g><path style="opacity:0.773" fill="#73736f" d="M 164.5,217.5 C 165.5,217.5 166.5,217.5 167.5,217.5C 170.5,217.5 173.5,217.5 176.5,217.5C 170.001,219.026 163.335,219.359 156.5,218.5C 153.761,218.547 153.095,219.547 154.5,221.5C 153.391,221.443 152.391,221.11 151.5,220.5C 151.414,219.504 151.748,218.671 152.5,218C 156.486,217.501 160.486,217.334 164.5,217.5 Z"/></g>
<g><path style="opacity:0.996" fill="#363634" d="M 176.5,217.5 C 179.5,217.5 182.5,217.5 185.5,217.5C 186.513,221.813 184.846,224.146 180.5,224.5C 180.5,222.833 180.5,221.167 180.5,219.5C 171.816,219.979 163.149,220.646 154.5,221.5C 153.095,219.547 153.761,218.547 156.5,218.5C 163.335,219.359 170.001,219.026 176.5,217.5 Z"/></g>
<g><path style="opacity:0.998" fill="#bfc0be" d="M 180.5,224.5 C 179.5,224.5 178.5,224.5 177.5,224.5C 177.5,223.167 177.5,221.833 177.5,220.5C 174.167,220.5 170.833,220.5 167.5,220.5C 167.5,221.833 167.5,223.167 167.5,224.5C 162.056,223.892 157.056,224.558 152.5,226.5C 151.539,224.735 151.205,222.735 151.5,220.5C 152.391,221.11 153.391,221.443 154.5,221.5C 163.149,220.646 171.816,219.979 180.5,219.5C 180.5,221.167 180.5,222.833 180.5,224.5 Z"/></g>
<g><path style="opacity:1" fill="#f3f1e1" d="M 177.5,224.5 C 174.167,224.5 170.833,224.5 167.5,224.5C 167.5,223.167 167.5,221.833 167.5,220.5C 170.833,220.5 174.167,220.5 177.5,220.5C 177.5,221.833 177.5,223.167 177.5,224.5 Z"/></g>
<g><path style="opacity:1" fill="#4a4942" d="M 185.5,217.5 C 187.402,220.337 188.069,223.671 187.5,227.5C 183.833,227.5 180.167,227.5 176.5,227.5C 175.036,226.84 173.369,226.507 171.5,226.5C 168.434,227.046 165.434,227.712 162.5,228.5C 159.813,228.664 157.146,228.497 154.5,228C 153.584,227.722 152.918,227.222 152.5,226.5C 157.056,224.558 162.056,223.892 167.5,224.5C 170.833,224.5 174.167,224.5 177.5,224.5C 178.5,224.5 179.5,224.5 180.5,224.5C 184.846,224.146 186.513,221.813 185.5,217.5 Z"/></g>
<g><path style="opacity:1" fill="#dddcd2" d="M 176.5,227.5 C 173.482,227.335 170.482,227.502 167.5,228C 168.46,231.73 168.793,235.563 168.5,239.5C 165.833,239.5 163.167,239.5 160.5,239.5C 165.152,238.885 166.652,236.219 165,231.5C 164.302,230.309 163.469,229.309 162.5,228.5C 165.434,227.712 168.434,227.046 171.5,226.5C 173.369,226.507 175.036,226.84 176.5,227.5 Z"/></g>
<g><path style="opacity:0.835" fill="#7c7b78" d="M 151.5,240.5 C 154.287,239.523 157.287,239.19 160.5,239.5C 163.167,239.5 165.833,239.5 168.5,239.5C 171.167,239.5 173.833,239.5 176.5,239.5C 168.356,241.453 160.022,241.786 151.5,240.5 Z"/></g>
<g><path style="opacity:1" fill="#dfdfd1" d="M 177.5,246.5 C 173.833,246.5 170.167,246.5 166.5,246.5C 166.5,245.5 166.5,244.5 166.5,243.5C 167.514,242.235 169.014,241.569 171,241.5C 174.167,241.901 177.334,242.234 180.5,242.5C 180.5,243.833 180.5,245.167 180.5,246.5C 179.5,246.5 178.5,246.5 177.5,246.5 Z"/></g>
<g><path style="opacity:0.986" fill="#dedede" d="M 151.5,240.5 C 152.607,242.969 154.607,243.969 157.5,243.5C 158.952,244.302 160.618,244.802 162.5,245C 161.263,245.232 160.263,245.732 159.5,246.5C 156.615,246.194 153.948,246.527 151.5,247.5C 151.5,247.833 151.5,248.167 151.5,248.5C 150.167,245.833 150.167,243.167 151.5,240.5 Z"/></g>
<g><path style="opacity:0.839" fill="#a8a8aa" d="M 157.5,243.5 C 160.5,243.5 163.5,243.5 166.5,243.5C 166.5,244.5 166.5,245.5 166.5,246.5C 164.167,246.5 161.833,246.5 159.5,246.5C 160.263,245.732 161.263,245.232 162.5,245C 160.618,244.802 158.952,244.302 157.5,243.5 Z"/></g>
<g><path style="opacity:0.8" fill="#70706d" d="M 151.5,247.5 C 153.948,246.527 156.615,246.194 159.5,246.5C 161.833,246.5 164.167,246.5 166.5,246.5C 170.167,246.5 173.833,246.5 177.5,246.5C 173.833,247.167 170.167,247.833 166.5,248.5C 161.507,248.084 156.507,247.751 151.5,247.5 Z"/></g>
<g><path style="opacity:1" fill="#3f3f36" d="M 176.5,239.5 C 180.167,239.5 183.833,239.5 187.5,239.5C 187.5,242.833 187.5,246.167 187.5,249.5C 180.496,249.227 173.496,248.894 166.5,248.5C 170.167,247.833 173.833,247.167 177.5,246.5C 178.5,246.5 179.5,246.5 180.5,246.5C 180.5,245.167 180.5,243.833 180.5,242.5C 177.334,242.234 174.167,241.901 171,241.5C 169.014,241.569 167.514,242.235 166.5,243.5C 163.5,243.5 160.5,243.5 157.5,243.5C 154.607,243.969 152.607,242.969 151.5,240.5C 160.022,241.786 168.356,241.453 176.5,239.5 Z"/></g>
<g><path style="opacity:0.643" fill="#464646" d="M 151.5,247.5 C 156.507,247.751 161.507,248.084 166.5,248.5C 166.5,249.167 166.5,249.833 166.5,250.5C 165.833,250.5 165.167,250.5 164.5,250.5C 159.878,250.844 155.545,250.177 151.5,248.5C 151.5,248.167 151.5,247.833 151.5,247.5 Z"/></g>
<g><path style="opacity:0.174" fill="#c2c1c2" d="M 164.5,250.5 C 165.167,250.5 165.833,250.5 166.5,250.5C 166.237,254.6 166.57,258.6 167.5,262.5C 162.833,262.5 158.167,262.5 153.5,262.5C 156.641,261.679 159.975,261.179 163.5,261C 165.762,257.731 166.095,254.231 164.5,250.5 Z"/></g>
<g><path style="opacity:0.708" fill="#dbdbd6" d="M 151.5,262.5 C 151.414,263.496 151.748,264.329 152.5,265C 160.505,265.357 168.505,265.19 176.5,264.5C 177.209,265.404 178.209,265.737 179.5,265.5C 179.5,266.5 179.5,267.5 179.5,268.5C 171.981,268.175 164.648,268.508 157.5,269.5C 155.265,269.205 153.265,269.539 151.5,270.5C 151.305,267.874 151.305,265.207 151.5,262.5 Z"/></g>
<g><path style="opacity:1" fill="#a0a097" d="M 176.5,264.5 C 177.833,264.5 179.167,264.5 180.5,264.5C 180.5,266.167 180.5,267.833 180.5,269.5C 172.833,269.5 165.167,269.5 157.5,269.5C 164.648,268.508 171.981,268.175 179.5,268.5C 179.5,267.5 179.5,266.5 179.5,265.5C 178.209,265.737 177.209,265.404 176.5,264.5 Z"/></g>
<g><path style="opacity:1" fill="#3e3d39" d="M 151.5,262.5 C 152.167,262.5 152.833,262.5 153.5,262.5C 158.167,262.5 162.833,262.5 167.5,262.5C 170.833,262.5 174.167,262.5 177.5,262.5C 180.5,262.5 183.5,262.5 186.5,262.5C 186.5,265.5 186.5,268.5 186.5,271.5C 179.675,270.43 173.008,270.43 166.5,271.5C 163.167,271.5 159.833,271.5 156.5,271.5C 154.585,271.784 152.919,271.451 151.5,270.5C 153.265,269.539 155.265,269.205 157.5,269.5C 165.167,269.5 172.833,269.5 180.5,269.5C 180.5,267.833 180.5,266.167 180.5,264.5C 179.167,264.5 177.833,264.5 176.5,264.5C 168.505,265.19 160.505,265.357 152.5,265C 151.748,264.329 151.414,263.496 151.5,262.5 Z"/></g>
<g><path style="opacity:1" fill="#8b8b79" d="M 177.5,262.5 C 180.625,261.521 183.958,261.187 187.5,261.5C 187.5,265.167 187.5,268.833 187.5,272.5C 180.826,272.287 174.159,271.954 167.5,271.5C 167.167,271.5 166.833,271.5 166.5,271.5C 173.008,270.43 179.675,270.43 186.5,271.5C 186.5,268.5 186.5,265.5 186.5,262.5C 183.5,262.5 180.5,262.5 177.5,262.5 Z"/></g>
<g><path style="opacity:0.573" fill="#c4c4bf" d="M 156.5,271.5 C 159.833,271.5 163.167,271.5 166.5,271.5C 166.833,271.5 167.167,271.5 167.5,271.5C 167.5,275.5 167.5,279.5 167.5,283.5C 170.5,283.5 173.5,283.5 176.5,283.5C 176.5,283.833 176.5,284.167 176.5,284.5C 169.833,284.5 163.167,284.5 156.5,284.5C 159.287,283.523 162.287,283.19 165.5,283.5C 166.618,280.145 166.618,276.812 165.5,273.5C 162.358,272.833 159.358,272.166 156.5,271.5 Z"/></g>
<g><path style="opacity:1" fill="#484641" d="M 156.5,284.5 C 163.167,284.5 169.833,284.5 176.5,284.5C 179.833,284.5 183.167,284.5 186.5,284.5C 186.5,287.5 186.5,290.5 186.5,293.5C 179.659,292.798 172.992,292.798 166.5,293.5C 165.791,294.404 164.791,294.737 163.5,294.5C 159.4,294.763 155.4,294.43 151.5,293.5C 153.635,291.631 156.302,290.964 159.5,291.5C 166.5,291.5 173.5,291.5 180.5,291.5C 180.5,289.833 180.5,288.167 180.5,286.5C 179.167,286.5 177.833,286.5 176.5,286.5C 173.5,286.5 170.5,286.5 167.5,286.5C 162.93,287.441 158.263,287.774 153.5,287.5C 152.167,287.5 151.5,286.833 151.5,285.5C 152.896,283.627 154.563,283.294 156.5,284.5 Z"/></g>
<g><path style="opacity:0.992" fill="#e0e0df" d="M 151.5,285.5 C 151.5,286.833 152.167,287.5 153.5,287.5C 156.028,288.166 158.694,288.832 161.5,289.5C 160.757,290.182 160.091,290.849 159.5,291.5C 156.302,290.964 153.635,291.631 151.5,293.5C 150.167,290.833 150.167,288.167 151.5,285.5 Z"/></g>
<g><path style="opacity:1" fill="#afafac" d="M 167.5,286.5 C 167.5,287.833 167.5,289.167 167.5,290.5C 171.5,290.5 175.5,290.5 179.5,290.5C 179.5,289.5 179.5,288.5 179.5,287.5C 178.209,287.737 177.209,287.404 176.5,286.5C 177.833,286.5 179.167,286.5 180.5,286.5C 180.5,288.167 180.5,289.833 180.5,291.5C 173.5,291.5 166.5,291.5 159.5,291.5C 160.091,290.849 160.757,290.182 161.5,289.5C 158.694,288.832 156.028,288.166 153.5,287.5C 158.263,287.774 162.93,287.441 167.5,286.5 Z"/></g>
<g><path style="opacity:1" fill="#f0eedc" d="M 167.5,286.5 C 170.5,286.5 173.5,286.5 176.5,286.5C 177.209,287.404 178.209,287.737 179.5,287.5C 179.5,288.5 179.5,289.5 179.5,290.5C 175.5,290.5 171.5,290.5 167.5,290.5C 167.5,289.167 167.5,287.833 167.5,286.5 Z"/></g>
<g><path style="opacity:1" fill="#878572" d="M 176.5,284.5 C 176.5,284.167 176.5,283.833 176.5,283.5C 180.167,283.5 183.833,283.5 187.5,283.5C 187.5,287.167 187.5,290.833 187.5,294.5C 180.49,294.332 173.49,293.999 166.5,293.5C 172.992,292.798 179.659,292.798 186.5,293.5C 186.5,290.5 186.5,287.5 186.5,284.5C 183.167,284.5 179.833,284.5 176.5,284.5 Z"/></g>
<g><path style="opacity:0.655" fill="#d0cfd0" d="M 151.5,306.5 C 151.577,307.75 152.244,308.583 153.5,309C 157.821,309.499 162.154,309.666 166.5,309.5C 166.5,310.833 166.5,312.167 166.5,313.5C 161.056,312.892 156.056,313.558 151.5,315.5C 151.214,312.453 151.214,309.453 151.5,306.5 Z"/></g>
<g><path style="opacity:1" fill="#e8e8d6" d="M 176.5,308.5 C 177.209,309.404 178.209,309.737 179.5,309.5C 179.5,310.833 179.5,312.167 179.5,313.5C 175.167,313.5 170.833,313.5 166.5,313.5C 166.5,312.167 166.5,310.833 166.5,309.5C 169.625,308.521 172.958,308.187 176.5,308.5 Z"/></g>
<g><path style="opacity:0.631" fill="#5e5d5a" d="M 176.5,308.5 C 177.833,308.5 179.167,308.5 180.5,308.5C 180.5,310.5 180.5,312.5 180.5,314.5C 175.968,314.182 171.634,314.515 167.5,315.5C 162.167,315.5 156.833,315.5 151.5,315.5C 156.056,313.558 161.056,312.892 166.5,313.5C 170.833,313.5 175.167,313.5 179.5,313.5C 179.5,312.167 179.5,310.833 179.5,309.5C 178.209,309.737 177.209,309.404 176.5,308.5 Z"/></g>
<g><path style="opacity:1" fill="#3f3e36" d="M 151.5,306.5 C 155.167,306.5 158.833,306.5 162.5,306.5C 170.5,306.5 178.5,306.5 186.5,306.5C 186.5,309.5 186.5,312.5 186.5,315.5C 183.167,315.5 179.833,315.5 176.5,315.5C 173.5,315.5 170.5,315.5 167.5,315.5C 171.634,314.515 175.968,314.182 180.5,314.5C 180.5,312.5 180.5,310.5 180.5,308.5C 179.167,308.5 177.833,308.5 176.5,308.5C 172.958,308.187 169.625,308.521 166.5,309.5C 162.154,309.666 157.821,309.499 153.5,309C 152.244,308.583 151.577,307.75 151.5,306.5 Z"/></g>
<g><path style="opacity:1" fill="#f3f2d9" d="M 187.5,195.5 C 188.312,200.313 189.645,204.98 191.5,209.5C 188.495,209.747 185.995,208.747 184,206.5C 179.784,207.804 175.617,208.137 171.5,207.5C 171.298,209.989 171.798,212.323 173,214.5C 173.333,213.5 173.667,212.5 174,211.5C 174.408,213.41 175.575,214.41 177.5,214.5C 180.522,213.351 183.522,213.351 186.5,214.5C 190.139,216.522 190.806,219.022 188.5,222C 190.011,232.479 186.178,234.979 177,229.5C 174.959,230.423 172.792,230.756 170.5,230.5C 170.261,232.467 170.594,234.301 171.5,236C 177.11,237.303 182.777,238.136 188.5,238.5C 187.971,242.351 188.638,245.851 190.5,249C 188.951,250.214 187.785,251.714 187,253.5C 184.351,253.255 181.518,252.589 178.5,251.5C 174.207,252.582 173.54,254.749 176.5,258C 180.528,258.392 184.528,258.892 188.5,259.5C 188.987,263.728 189.653,267.895 190.5,272C 190.167,272.333 189.833,272.667 189.5,273C 184.115,275.008 178.615,275.508 173,274.5C 168.59,276.829 168.424,279.496 172.5,282.5C 175.648,281.788 178.814,281.121 182,280.5C 185.411,281.461 188.577,282.794 191.5,284.5C 190.635,289.427 188.968,294.094 186.5,298.5C 183.543,300.834 180.876,300.334 178.5,297C 176.633,296.289 175.133,296.789 174,298.5C 173.333,297.833 172.667,297.167 172,296.5C 171.023,298.74 170.523,301.073 170.5,303.5C 177.276,303.632 183.943,303.799 190.5,304C 188.122,304.974 188.456,305.641 191.5,306C 189.968,306.7 188.968,307.866 188.5,309.5C 189.123,311.711 190.123,313.711 191.5,315.5C 190.975,316.192 190.308,316.692 189.5,317C 186.167,317.333 182.833,317.667 179.5,318C 179,318.5 178.5,319 178,319.5C 175.379,319.296 172.545,319.296 169.5,319.5C 169.575,322.206 169.908,324.873 170.5,327.5C 175.39,325.93 180.39,325.43 185.5,326C 187.305,326.972 188.972,328.139 190.5,329.5C 189.617,330.548 188.95,331.715 188.5,333C 191.472,337.44 190.305,340.607 185,342.5C 179.953,341.678 175.12,341.678 170.5,342.5C 170.5,341.5 170.5,340.5 170.5,339.5C 176.358,339.822 182.025,339.489 187.5,338.5C 187.5,335.167 187.5,331.833 187.5,328.5C 183.629,328.185 179.962,328.518 176.5,329.5C 173.167,329.5 169.833,329.5 166.5,329.5C 166.5,325.167 166.5,320.833 166.5,316.5C 169.833,316.5 173.167,316.5 176.5,316.5C 180.167,316.5 183.833,316.5 187.5,316.5C 187.813,312.958 187.479,309.625 186.5,306.5C 178.5,306.5 170.5,306.5 162.5,306.5C 164.964,305.173 165.964,303.007 165.5,300C 165.302,297.879 164.636,296.046 163.5,294.5C 164.791,294.737 165.791,294.404 166.5,293.5C 173.49,293.999 180.49,294.332 187.5,294.5C 187.5,290.833 187.5,287.167 187.5,283.5C 183.833,283.5 180.167,283.5 176.5,283.5C 173.5,283.5 170.5,283.5 167.5,283.5C 167.5,279.5 167.5,275.5 167.5,271.5C 174.159,271.954 180.826,272.287 187.5,272.5C 187.5,268.833 187.5,265.167 187.5,261.5C 183.958,261.187 180.625,261.521 177.5,262.5C 174.167,262.5 170.833,262.5 167.5,262.5C 166.57,258.6 166.237,254.6 166.5,250.5C 166.5,249.833 166.5,249.167 166.5,248.5C 173.496,248.894 180.496,249.227 187.5,249.5C 187.5,246.167 187.5,242.833 187.5,239.5C 183.833,239.5 180.167,239.5 176.5,239.5C 173.833,239.5 171.167,239.5 168.5,239.5C 168.793,235.563 168.46,231.73 167.5,228C 170.482,227.502 173.482,227.335 176.5,227.5C 180.167,227.5 183.833,227.5 187.5,227.5C 188.069,223.671 187.402,220.337 185.5,217.5C 182.5,217.5 179.5,217.5 176.5,217.5C 173.5,217.5 170.5,217.5 167.5,217.5C 167.5,213.5 167.5,209.5 167.5,205.5C 167.5,205.167 167.5,204.833 167.5,204.5C 174.159,204.954 180.826,205.287 187.5,205.5C 187.5,202.167 187.5,198.833 187.5,195.5 Z"/></g>
<g><path style="opacity:1" fill="#696956" d="M 186.5,306.5 C 187.479,309.625 187.813,312.958 187.5,316.5C 183.833,316.5 180.167,316.5 176.5,316.5C 176.5,316.167 176.5,315.833 176.5,315.5C 179.833,315.5 183.167,315.5 186.5,315.5C 186.5,312.5 186.5,309.5 186.5,306.5 Z"/></g>
<g><path style="opacity:0.17" fill="#b3b3b2" d="M 151.5,315.5 C 156.833,315.5 162.167,315.5 167.5,315.5C 170.5,315.5 173.5,315.5 176.5,315.5C 176.5,315.833 176.5,316.167 176.5,316.5C 173.167,316.5 169.833,316.5 166.5,316.5C 166.5,320.833 166.5,325.167 166.5,329.5C 166.167,329.5 165.833,329.5 165.5,329.5C 163.5,329.5 161.5,329.5 159.5,329.5C 161.218,328.776 163.052,328.109 165,327.5C 165.667,324.167 165.667,320.833 165,317.5C 160.399,316.858 155.899,316.191 151.5,315.5 Z"/></g>
<g><path style="opacity:0.939" fill="#686867" d="M 151.5,329.5 C 154.167,329.5 156.833,329.5 159.5,329.5C 161.5,329.5 163.5,329.5 165.5,329.5C 165.328,330.492 165.662,331.158 166.5,331.5C 166.5,331.833 166.5,332.167 166.5,332.5C 161.5,332.5 156.5,332.5 151.5,332.5C 151.5,331.5 151.5,330.5 151.5,329.5 Z"/></g>
<g><path style="opacity:1" fill="#424038" d="M 165.5,329.5 C 165.833,329.5 166.167,329.5 166.5,329.5C 169.833,329.5 173.167,329.5 176.5,329.5C 179.833,329.5 183.167,329.5 186.5,329.5C 186.5,332.5 186.5,335.5 186.5,338.5C 183.167,338.5 179.833,338.5 176.5,338.5C 172.688,337.676 168.688,337.176 164.5,337C 168.688,336.824 172.688,336.324 176.5,335.5C 177.833,335.5 179.167,335.5 180.5,335.5C 180.5,334.167 180.5,332.833 180.5,331.5C 175.833,331.5 171.167,331.5 166.5,331.5C 165.662,331.158 165.328,330.492 165.5,329.5 Z"/></g>
<g><path style="opacity:1" fill="#737162" d="M 176.5,329.5 C 179.962,328.518 183.629,328.185 187.5,328.5C 187.5,331.833 187.5,335.167 187.5,338.5C 187.167,338.5 186.833,338.5 186.5,338.5C 186.5,335.5 186.5,332.5 186.5,329.5C 183.167,329.5 179.833,329.5 176.5,329.5 Z"/></g>
<g><path style="opacity:1" fill="#e5e5d3" d="M 166.5,331.5 C 171.167,331.5 175.833,331.5 180.5,331.5C 180.5,332.833 180.5,334.167 180.5,335.5C 179.167,335.5 177.833,335.5 176.5,335.5C 173.167,335.5 169.833,335.5 166.5,335.5C 167.833,334.5 167.833,333.5 166.5,332.5C 166.5,332.167 166.5,331.833 166.5,331.5 Z"/></g>
<g><path style="opacity:0.953" fill="#dcdcdc" d="M 151.5,329.5 C 151.5,330.5 151.5,331.5 151.5,332.5C 156.5,332.5 161.5,332.5 166.5,332.5C 167.833,333.5 167.833,334.5 166.5,335.5C 161.637,335.181 156.97,335.514 152.5,336.5C 151.662,336.842 151.328,337.508 151.5,338.5C 150.167,335.5 150.167,332.5 151.5,329.5 Z"/></g>
<g><path style="opacity:0.707" fill="#e8e8e4" d="M 560.5,91.5 C 561.167,91.5 561.5,91.8333 561.5,92.5C 560.903,92.7352 560.57,93.2352 560.5,94C 561.154,120.973 561.821,147.807 562.5,174.5C 561.504,328.805 561.171,483.139 561.5,637.5C 560.883,637.389 560.383,637.056 560,636.5C 559.5,475.834 559.333,315.167 559.5,154.5C 558.867,143.531 558.534,132.531 558.5,121.5C 558.501,111.144 559.168,101.144 560.5,91.5 Z"/></g>
<g><path style="opacity:0.482" fill="#7d7c78" d="M 152.5,336.5 C 156.97,335.514 161.637,335.181 166.5,335.5C 169.833,335.5 173.167,335.5 176.5,335.5C 172.688,336.324 168.688,336.824 164.5,337C 168.688,337.176 172.688,337.676 176.5,338.5C 172.833,338.5 169.167,338.5 165.5,338.5C 163.167,338.5 160.833,338.5 158.5,338.5C 158.611,337.883 158.944,337.383 159.5,337C 157.19,336.503 154.857,336.337 152.5,336.5 Z"/></g>
<g><path style="opacity:0.514" fill="#464646" d="M 152.5,336.5 C 154.857,336.337 157.19,336.503 159.5,337C 158.944,337.383 158.611,337.883 158.5,338.5C 156.167,338.5 153.833,338.5 151.5,338.5C 151.328,337.508 151.662,336.842 152.5,336.5 Z"/></g>
<g><path style="opacity:1" fill="#e1dfd0" d="M 165.5,338.5 C 169.167,338.5 172.833,338.5 176.5,338.5C 179.833,338.5 183.167,338.5 186.5,338.5C 186.833,338.5 187.167,338.5 187.5,338.5C 182.025,339.489 176.358,339.822 170.5,339.5C 170.5,340.5 170.5,341.5 170.5,342.5C 169.698,343.952 169.198,345.618 169,347.5C 168.667,345.5 168.333,343.5 168,341.5C 167.502,344.482 167.335,347.482 167.5,350.5C 166.167,350.5 164.833,350.5 163.5,350.5C 165.343,346.813 166.01,342.813 165.5,338.5 Z"/></g>
<g><path style="opacity:0.886" fill="#7a796f" d="M 160.5,350.5 C 161.5,350.5 162.5,350.5 163.5,350.5C 164.833,350.5 166.167,350.5 167.5,350.5C 174.167,350.5 180.833,350.5 187.5,350.5C 187.813,354.042 187.479,357.375 186.5,360.5C 186.5,357.5 186.5,354.5 186.5,351.5C 176.975,351.74 167.642,351.74 158.5,351.5C 159.492,351.672 160.158,351.338 160.5,350.5 Z"/></g>
<g><path style="opacity:0.888" fill="#a1a09d" d="M 160.5,350.5 C 160.158,351.338 159.492,351.672 158.5,351.5C 156.712,351.215 155.045,351.548 153.5,352.5C 155.667,352.833 157.833,353.167 160,353.5C 166.818,352.811 173.651,352.477 180.5,352.5C 180.5,354.5 180.5,356.5 180.5,358.5C 179.5,358.5 178.5,358.5 177.5,358.5C 178.968,357.221 179.635,355.554 179.5,353.5C 175.5,353.5 171.5,353.5 167.5,353.5C 167.371,355.216 167.038,356.883 166.5,358.5C 161.833,358.5 157.167,358.5 152.5,358.5C 156.829,357.939 161.162,357.106 165.5,356C 160.865,354.898 156.199,354.065 151.5,353.5C 151.414,352.504 151.748,351.671 152.5,351C 155.146,350.503 157.813,350.336 160.5,350.5 Z"/></g>
<g><path style="opacity:1" fill="#dddddd" d="M 151.5,353.5 C 156.199,354.065 160.865,354.898 165.5,356C 161.162,357.106 156.829,357.939 152.5,358.5C 152.833,359.167 153.167,359.833 153.5,360.5C 152.078,360.25 151.078,359.417 150.5,358C 151.38,356.644 151.714,355.144 151.5,353.5 Z"/></g>
<g><path style="opacity:1" fill="#43413b" d="M 158.5,351.5 C 167.642,351.74 176.975,351.74 186.5,351.5C 186.5,354.5 186.5,357.5 186.5,360.5C 176.5,360.5 166.5,360.5 156.5,360.5C 155.5,360.5 154.5,360.5 153.5,360.5C 153.167,359.833 152.833,359.167 152.5,358.5C 157.167,358.5 161.833,358.5 166.5,358.5C 170.167,358.5 173.833,358.5 177.5,358.5C 178.5,358.5 179.5,358.5 180.5,358.5C 180.5,356.5 180.5,354.5 180.5,352.5C 173.651,352.477 166.818,352.811 160,353.5C 157.833,353.167 155.667,352.833 153.5,352.5C 155.045,351.548 156.712,351.215 158.5,351.5 Z"/></g>
<g><path style="opacity:1" fill="#efedde" d="M 177.5,358.5 C 173.833,358.5 170.167,358.5 166.5,358.5C 167.038,356.883 167.371,355.216 167.5,353.5C 171.5,353.5 175.5,353.5 179.5,353.5C 179.635,355.554 178.968,357.221 177.5,358.5 Z"/></g>
<g><path style="opacity:0.898" fill="#c3c1b8" d="M 156.5,360.5 C 166.5,360.5 176.5,360.5 186.5,360.5C 180.355,361.49 174.022,361.823 167.5,361.5C 167.5,365.5 167.5,369.5 167.5,373.5C 170.167,373.5 172.833,373.5 175.5,373.5C 170.006,374.279 164.339,374.279 158.5,373.5C 160.556,372.784 162.723,372.117 165,371.5C 166.383,368.312 166.549,365.146 165.5,362C 162.305,361.819 159.305,361.319 156.5,360.5 Z"/></g>
<g><path style="opacity:1" fill="#4a4943" d="M 154.5,373.5 C 155.833,373.5 157.167,373.5 158.5,373.5C 164.339,374.279 170.006,374.279 175.5,373.5C 179.167,373.5 182.833,373.5 186.5,373.5C 186.5,376.833 186.5,380.167 186.5,383.5C 183.167,383.5 179.833,383.5 176.5,383.5C 168.684,382.508 160.684,382.174 152.5,382.5C 151.662,382.158 151.328,381.492 151.5,380.5C 155.119,379.756 158.785,379.423 162.5,379.5C 164.292,379.366 165.958,379.699 167.5,380.5C 171.5,380.5 175.5,380.5 179.5,380.5C 180.451,379.081 180.784,377.415 180.5,375.5C 175.968,375.182 171.634,375.515 167.5,376.5C 167.167,376.5 166.833,376.5 166.5,376.5C 161.851,375.935 157.184,375.435 152.5,375C 153.416,374.722 154.082,374.222 154.5,373.5 Z"/></g>
<g><path style="opacity:0.993" fill="#e2e3e2" d="M 151.5,376.5 C 154.518,376.335 157.518,376.502 160.5,377C 161.381,377.708 162.047,378.542 162.5,379.5C 158.785,379.423 155.119,379.756 151.5,380.5C 151.5,379.167 151.5,377.833 151.5,376.5 Z"/></g>
<g><path style="opacity:1" fill="#ece9db" d="M 166.5,376.5 C 166.833,376.5 167.167,376.5 167.5,376.5C 171.5,376.5 175.5,376.5 179.5,376.5C 179.5,377.833 179.5,379.167 179.5,380.5C 175.5,380.5 171.5,380.5 167.5,380.5C 167.567,379.041 167.234,377.708 166.5,376.5 Z"/></g>
<g><path style="opacity:1" fill="#8a8882" d="M 167.5,376.5 C 171.634,375.515 175.968,375.182 180.5,375.5C 180.784,377.415 180.451,379.081 179.5,380.5C 179.5,379.167 179.5,377.833 179.5,376.5C 175.5,376.5 171.5,376.5 167.5,376.5 Z"/></g>
<g><path style="opacity:0.945" fill="#b3b3b4" d="M 154.5,373.5 C 154.082,374.222 153.416,374.722 152.5,375C 157.184,375.435 161.851,375.935 166.5,376.5C 167.234,377.708 167.567,379.041 167.5,380.5C 165.958,379.699 164.292,379.366 162.5,379.5C 162.047,378.542 161.381,377.708 160.5,377C 157.518,376.502 154.518,376.335 151.5,376.5C 151.281,375.325 151.614,374.325 152.5,373.5C 153.429,372.45 154.095,372.45 154.5,373.5 Z"/></g>
<g><path style="opacity:1" fill="#a2a18f" d="M 175.5,373.5 C 179.298,372.517 183.298,372.183 187.5,372.5C 187.815,376.371 187.482,380.038 186.5,383.5C 186.5,380.167 186.5,376.833 186.5,373.5C 182.833,373.5 179.167,373.5 175.5,373.5 Z"/></g>
<g><path style="opacity:1" fill="#c4c3bb" d="M 152.5,382.5 C 160.684,382.174 168.684,382.508 176.5,383.5C 173.5,383.5 170.5,383.5 167.5,383.5C 167.5,387.5 167.5,391.5 167.5,395.5C 170.5,395.5 173.5,395.5 176.5,395.5C 173.713,396.477 170.713,396.81 167.5,396.5C 166.292,395.766 164.959,395.433 163.5,395.5C 165.714,392.097 166.381,388.431 165.5,384.5C 161.018,383.833 156.684,383.166 152.5,382.5 Z"/></g>
<g><path style="opacity:1" fill="#555554" d="M 163.5,395.5 C 164.959,395.433 166.292,395.766 167.5,396.5C 171.5,397.167 175.5,397.833 179.5,398.5C 175.167,398.5 170.833,398.5 166.5,398.5C 163.5,398.5 160.5,398.5 157.5,398.5C 150.113,398.314 149.779,397.314 156.5,395.5C 158.998,394.918 161.331,394.918 163.5,395.5 Z"/></g>
<g><path style="opacity:0.739" fill="#d8d8d8" d="M 156.5,395.5 C 149.779,397.314 150.113,398.314 157.5,398.5C 159.292,399.309 161.292,399.809 163.5,400C 163.167,400.333 162.833,400.667 162.5,401C 158.975,401.179 155.641,401.679 152.5,402.5C 152.167,402.5 151.833,402.5 151.5,402.5C 150.833,402.5 150.5,402.833 150.5,403.5C 147.769,397.358 149.769,394.691 156.5,395.5 Z"/></g>
<g><path style="opacity:0.953" fill="#a6a6a8" d="M 157.5,398.5 C 160.5,398.5 163.5,398.5 166.5,398.5C 166.5,399.833 166.5,401.167 166.5,402.5C 161.833,402.5 157.167,402.5 152.5,402.5C 155.641,401.679 158.975,401.179 162.5,401C 162.833,400.667 163.167,400.333 163.5,400C 161.292,399.809 159.292,399.309 157.5,398.5 Z"/></g>
<g><path style="opacity:1" fill="#d9d8cd" d="M 166.5,398.5 C 170.833,398.5 175.167,398.5 179.5,398.5C 179.5,400.167 179.5,401.833 179.5,403.5C 174.968,403.818 170.634,403.485 166.5,402.5C 166.5,401.167 166.5,399.833 166.5,398.5 Z"/></g>
<g><path style="opacity:1" fill="#393831" d="M 176.5,395.5 C 179.833,395.5 183.167,395.5 186.5,395.5C 186.5,398.5 186.5,401.5 186.5,404.5C 176.129,404.179 165.795,404.179 155.5,404.5C 153.667,404.415 152.334,403.748 151.5,402.5C 151.833,402.5 152.167,402.5 152.5,402.5C 157.167,402.5 161.833,402.5 166.5,402.5C 170.634,403.485 174.968,403.818 179.5,403.5C 179.5,401.833 179.5,400.167 179.5,398.5C 175.5,397.833 171.5,397.167 167.5,396.5C 170.713,396.81 173.713,396.477 176.5,395.5 Z"/></g>
<g><path style="opacity:1" fill="#858477" d="M 176.5,395.5 C 179.962,394.518 183.629,394.185 187.5,394.5C 187.815,398.371 187.482,402.038 186.5,405.5C 179.167,405.5 171.833,405.5 164.5,405.5C 159.381,406.103 154.715,405.436 150.5,403.5C 150.5,402.833 150.833,402.5 151.5,402.5C 152.334,403.748 153.667,404.415 155.5,404.5C 165.795,404.179 176.129,404.179 186.5,404.5C 186.5,401.5 186.5,398.5 186.5,395.5C 183.167,395.5 179.833,395.5 176.5,395.5 Z"/></g>
<g><path style="opacity:1" fill="#f3f1d9" d="M 164.5,405.5 C 171.833,405.5 179.167,405.5 186.5,405.5C 186.489,407.017 185.823,408.184 184.5,409C 181.522,409.696 178.522,410.196 175.5,410.5C 175.5,412.167 175.5,413.833 175.5,415.5C 178.85,415.335 182.183,415.502 185.5,416C 186.056,416.383 186.389,416.883 186.5,417.5C 178.473,418.321 170.473,418.321 162.5,417.5C 163.172,416.733 164.005,416.066 165,415.5C 165.747,412.076 165.58,408.743 164.5,405.5 Z"/></g>
<g><path style="opacity:1" fill="#f9f6d5" d="M 227.5,638.5 C 227.5,636.167 227.5,633.833 227.5,631.5C 228.833,631.5 230.167,631.5 231.5,631.5C 231.5,629.167 231.5,626.833 231.5,624.5C 239.174,624.666 246.841,624.5 254.5,624C 255,623.5 255.5,623 256,622.5C 256.477,606.81 255.977,591.144 254.5,575.5C 254.554,468.857 254.554,362.19 254.5,255.5C 255.33,265.992 255.83,276.659 256,287.5C 256.262,266.154 256.762,244.821 257.5,223.5C 258.833,223.5 260.167,223.5 261.5,223.5C 260.596,244.817 260.262,266.151 260.5,287.5C 261.5,287.5 262.5,287.5 263.5,287.5C 263.5,292.833 263.5,298.167 263.5,303.5C 262.5,303.5 261.5,303.5 260.5,303.5C 260.5,306.167 260.5,308.833 260.5,311.5C 261.5,311.5 262.5,311.5 263.5,311.5C 264.167,316.833 264.833,322.167 265.5,327.5C 267.5,327.5 269.5,327.5 271.5,327.5C 271.5,330.167 271.5,332.833 271.5,335.5C 270.5,335.5 269.5,335.5 268.5,335.5C 268.5,338.167 268.5,340.833 268.5,343.5C 269.5,343.5 270.5,343.5 271.5,343.5C 271.5,346.167 271.5,348.833 271.5,351.5C 270.5,351.5 269.5,351.5 268.5,351.5C 268.5,354.167 268.5,356.833 268.5,359.5C 271.167,359.5 273.833,359.5 276.5,359.5C 276.5,362.167 276.5,364.833 276.5,367.5C 277.5,367.5 278.5,367.5 279.5,367.5C 279.5,368.5 279.5,369.5 279.5,370.5C 282.167,370.5 284.833,370.5 287.5,370.5C 287.5,372.167 287.5,373.833 287.5,375.5C 289.167,375.5 290.833,375.5 292.5,375.5C 292.5,378.167 292.5,380.833 292.5,383.5C 288.167,383.5 283.833,383.5 279.5,383.5C 279.5,386.167 279.5,388.833 279.5,391.5C 281.167,391.5 282.833,391.5 284.5,391.5C 284.5,394.167 284.5,396.833 284.5,399.5C 280.167,399.5 275.833,399.5 271.5,399.5C 271.5,402.167 271.5,404.833 271.5,407.5C 273.167,407.5 274.833,407.5 276.5,407.5C 276.5,410.167 276.5,412.833 276.5,415.5C 277.5,415.5 278.5,415.5 279.5,415.5C 279.5,418.167 279.5,420.833 279.5,423.5C 282.167,423.5 284.833,423.5 287.5,423.5C 287.5,426.167 287.5,428.833 287.5,431.5C 284.833,431.5 282.167,431.5 279.5,431.5C 279.5,434.167 279.5,436.833 279.5,439.5C 278.5,439.5 277.5,439.5 276.5,439.5C 276.5,442.167 276.5,444.833 276.5,447.5C 275.5,447.5 274.5,447.5 273.5,447.5C 273.5,450.167 273.5,452.833 273.5,455.5C 274.5,455.5 275.5,455.5 276.5,455.5C 276.5,476.833 276.5,498.167 276.5,519.5C 274.833,519.5 273.167,519.5 271.5,519.5C 271.5,530.167 271.5,540.833 271.5,551.5C 270.5,551.5 269.5,551.5 268.5,551.5C 268.5,556.833 268.5,562.167 268.5,567.5C 266.833,567.5 265.167,567.5 263.5,567.5C 263.5,575.5 263.5,583.5 263.5,591.5C 262.5,591.5 261.5,591.5 260.5,591.5C 260.5,596.833 260.5,602.167 260.5,607.5C 261.5,607.5 262.5,607.5 263.5,607.5C 263.5,610.167 263.5,612.833 263.5,615.5C 262.5,615.5 261.5,615.5 260.5,615.5C 260.5,618.167 260.5,620.833 260.5,623.5C 259.5,623.5 258.5,623.5 257.5,623.5C 257.5,626.167 257.5,628.833 257.5,631.5C 255.833,631.5 254.167,631.5 252.5,631.5C 252.5,633.833 252.5,636.167 252.5,638.5C 249.47,638.092 246.47,637.426 243.5,636.5C 238.271,638.038 232.937,638.705 227.5,638.5 Z"/></g>
<g><path style="opacity:1" fill="#42423a" d="M 155.5,417.5 C 157.833,417.5 160.167,417.5 162.5,417.5C 170.473,418.321 178.473,418.321 186.5,417.5C 186.5,420.833 186.5,424.167 186.5,427.5C 183.167,427.5 179.833,427.5 176.5,427.5C 168.682,425.656 160.682,425.323 152.5,426.5C 151.243,425.377 151.576,424.711 153.5,424.5C 158.263,424.226 162.93,424.559 167.5,425.5C 170.167,425.5 172.833,425.5 175.5,425.5C 177.167,425.5 178.833,425.5 180.5,425.5C 180.784,423.585 180.451,421.919 179.5,420.5C 175.5,420.5 171.5,420.5 167.5,420.5C 164.833,420.5 162.167,420.5 159.5,420.5C 156.753,420.813 154.086,420.48 151.5,419.5C 152.949,418.828 154.282,418.161 155.5,417.5 Z"/></g>
<g><path style="opacity:1" fill="#d6d6d6" d="M 155.5,417.5 C 154.282,418.161 152.949,418.828 151.5,419.5C 154.086,420.48 156.753,420.813 159.5,420.5C 160.952,421.302 162.618,421.802 164.5,422C 160.759,423.014 157.093,423.847 153.5,424.5C 151.576,424.711 151.243,425.377 152.5,426.5C 152.5,426.833 152.5,427.167 152.5,427.5C 150.846,425.44 149.846,422.94 149.5,420C 150.955,417.984 152.955,417.151 155.5,417.5 Z"/></g>
<g><path style="opacity:0.99" fill="#acabae" d="M 159.5,420.5 C 162.167,420.5 164.833,420.5 167.5,420.5C 167.5,422.167 167.5,423.833 167.5,425.5C 162.93,424.559 158.263,424.226 153.5,424.5C 157.093,423.847 160.759,423.014 164.5,422C 162.618,421.802 160.952,421.302 159.5,420.5 Z"/></g>
<g><path style="opacity:1" fill="#ebebdb" d="M 167.5,420.5 C 171.5,420.5 175.5,420.5 179.5,420.5C 179.5,421.833 179.5,423.167 179.5,424.5C 177.901,424.232 176.568,424.566 175.5,425.5C 172.833,425.5 170.167,425.5 167.5,425.5C 167.5,423.833 167.5,422.167 167.5,420.5 Z"/></g>
<g><path style="opacity:1" fill="#8d8f8b" d="M 179.5,420.5 C 180.451,421.919 180.784,423.585 180.5,425.5C 178.833,425.5 177.167,425.5 175.5,425.5C 176.568,424.566 177.901,424.232 179.5,424.5C 179.5,423.167 179.5,421.833 179.5,420.5 Z"/></g>
<g><path style="opacity:0.367" fill="#656560" d="M 176.5,427.5 C 174.167,427.5 171.833,427.5 169.5,427.5C 167.5,427.5 165.5,427.5 163.5,427.5C 159.833,427.5 156.167,427.5 152.5,427.5C 152.5,427.167 152.5,426.833 152.5,426.5C 160.682,425.323 168.682,425.656 176.5,427.5 Z"/></g>
<g><path style="opacity:1" fill="#e7e6dc" d="M 163.5,427.5 C 165.5,427.5 167.5,427.5 169.5,427.5C 169.5,431.833 169.5,436.167 169.5,440.5C 167.194,440.007 164.861,439.674 162.5,439.5C 163.209,438.596 164.209,438.263 165.5,438.5C 165.99,434.513 165.324,430.846 163.5,427.5 Z"/></g>
<g><path style="opacity:1" fill="#e0e0e0" d="M 151.5,440.5 C 151.328,441.492 151.662,442.158 152.5,442.5C 156.021,443.166 159.687,443.833 163.5,444.5C 160.023,445.167 156.689,445.834 153.5,446.5C 152.167,446.5 151.5,447.167 151.5,448.5C 149.286,445.956 149.286,443.289 151.5,440.5 Z"/></g>
<g><path style="opacity:1" fill="#a9a8a5" d="M 152.5,442.5 C 161.833,442.5 171.167,442.5 180.5,442.5C 181.167,446.5 179.5,448.167 175.5,447.5C 176.598,446.603 176.598,445.77 175.5,445C 176.167,444.667 176.833,444.333 177.5,444C 173.833,443.333 170.167,443.333 166.5,444C 167.337,445.011 167.67,446.178 167.5,447.5C 162.93,446.559 158.263,446.226 153.5,446.5C 156.689,445.834 160.023,445.167 163.5,444.5C 159.687,443.833 156.021,443.166 152.5,442.5 Z"/></g>
<g><path style="opacity:1" fill="#f8f5e4" d="M 175.5,447.5 C 172.833,447.5 170.167,447.5 167.5,447.5C 167.67,446.178 167.337,445.011 166.5,444C 170.167,443.333 173.833,443.333 177.5,444C 176.833,444.333 176.167,444.667 175.5,445C 176.598,445.77 176.598,446.603 175.5,447.5 Z"/></g>
<g><path style="opacity:1" fill="#46453e" d="M 162.5,439.5 C 164.861,439.674 167.194,440.007 169.5,440.5C 175.145,439.866 180.811,439.532 186.5,439.5C 186.5,442.833 186.5,446.167 186.5,449.5C 182.833,449.5 179.167,449.5 175.5,449.5C 171.833,449.5 168.167,449.5 164.5,449.5C 159.968,449.818 155.634,449.485 151.5,448.5C 151.5,447.167 152.167,446.5 153.5,446.5C 158.263,446.226 162.93,446.559 167.5,447.5C 170.167,447.5 172.833,447.5 175.5,447.5C 179.5,448.167 181.167,446.5 180.5,442.5C 171.167,442.5 161.833,442.5 152.5,442.5C 151.662,442.158 151.328,441.492 151.5,440.5C 154.962,439.518 158.629,439.185 162.5,439.5 Z"/></g>
<g><path style="opacity:1" fill="#949481" d="M 186.5,439.5 C 187.482,442.962 187.815,446.629 187.5,450.5C 183.5,450.5 179.5,450.5 175.5,450.5C 175.5,450.167 175.5,449.833 175.5,449.5C 179.167,449.5 182.833,449.5 186.5,449.5C 186.5,446.167 186.5,442.833 186.5,439.5 Z"/></g>
<g><path style="opacity:0.749" fill="#c7c8bf" d="M 164.5,449.5 C 168.167,449.5 171.833,449.5 175.5,449.5C 175.5,449.833 175.5,450.167 175.5,450.5C 172.833,450.5 170.167,450.5 167.5,450.5C 167.5,454.5 167.5,458.5 167.5,462.5C 170.167,462.5 172.833,462.5 175.5,462.5C 172.713,463.477 169.713,463.81 166.5,463.5C 165.817,461.824 164.483,461.157 162.5,461.5C 161.167,461.5 159.833,461.5 158.5,461.5C 163.859,461.132 166.526,458.132 166.5,452.5C 166.058,451.261 165.391,450.261 164.5,449.5 Z"/></g>
<g><path style="opacity:1" fill="#f7f6db" d="M 186.5,417.5 C 187.79,418.058 188.623,419.058 189,420.5C 189.821,423.554 189.655,426.554 188.5,429.5C 187.059,430.304 185.559,430.971 184,431.5C 175.575,427.146 172.741,429.479 175.5,438.5C 179.476,437.669 183.476,437.503 187.5,438C 189.657,441.271 189.99,444.771 188.5,448.5C 189.552,448.351 190.552,448.517 191.5,449C 190.338,449.827 189.171,450.66 188,451.5C 182.273,451.915 176.773,453.082 171.5,455C 170.151,456.635 170.318,458.135 172,459.5C 176.333,458.833 180.667,458.167 185,457.5C 187.785,461.839 189.285,466.673 189.5,472C 187.13,474.142 184.297,475.309 181,475.5C 177.655,473.859 174.155,473.359 170.5,474C 169.62,475.356 169.286,476.856 169.5,478.5C 172.198,478.45 174.364,479.45 176,481.5C 179.35,481.507 182.684,481.507 186,481.5C 187.893,482.196 189.726,483.03 191.5,484C 190.351,485.604 190.351,487.27 191.5,489C 190.171,490.66 189.171,492.493 188.5,494.5C 189.325,495.386 190.325,495.719 191.5,495.5C 191.813,498.572 191.146,501.405 189.5,504C 192.128,507.22 192.128,510.887 189.5,515C 190.167,515.333 190.833,515.667 191.5,516C 190.057,517.067 188.724,518.234 187.5,519.5C 185.715,518.337 183.715,517.67 181.5,517.5C 177.82,516.765 175.32,518.099 174,521.5C 173.107,520.289 172.274,520.289 171.5,521.5C 170.005,527.647 172.005,528.981 177.5,525.5C 181.111,526.262 184.778,526.762 188.5,527C 187.86,531.268 187.193,535.435 186.5,539.5C 186.5,535.833 186.5,532.167 186.5,528.5C 180.155,528.653 173.822,528.986 167.5,529.5C 166.705,525.215 166.372,520.881 166.5,516.5C 169.5,516.5 172.5,516.5 175.5,516.5C 179.167,516.5 182.833,516.5 186.5,516.5C 186.5,513.5 186.5,510.5 186.5,507.5C 180.355,506.51 174.022,506.177 167.5,506.5C 167.5,502.5 167.5,498.5 167.5,494.5C 171.833,494.5 176.167,494.5 180.5,494.5C 182.5,494.5 184.5,494.5 186.5,494.5C 186.5,490.833 186.5,487.167 186.5,483.5C 180.155,483.653 173.822,483.986 167.5,484.5C 167.5,480.5 167.5,476.5 167.5,472.5C 174.167,472.5 180.833,472.5 187.5,472.5C 187.5,468.833 187.5,465.167 187.5,461.5C 183.298,461.183 179.298,461.517 175.5,462.5C 172.833,462.5 170.167,462.5 167.5,462.5C 167.5,458.5 167.5,454.5 167.5,450.5C 170.167,450.5 172.833,450.5 175.5,450.5C 179.5,450.5 183.5,450.5 187.5,450.5C 187.815,446.629 187.482,442.962 186.5,439.5C 180.811,439.532 175.145,439.866 169.5,440.5C 169.5,436.167 169.5,431.833 169.5,427.5C 171.833,427.5 174.167,427.5 176.5,427.5C 179.833,427.5 183.167,427.5 186.5,427.5C 186.5,424.167 186.5,420.833 186.5,417.5 Z"/></g>
<g><path style="opacity:0.714" fill="#5a5c5b" d="M 158.5,461.5 C 159.833,461.5 161.167,461.5 162.5,461.5C 159.113,462.288 155.78,463.288 152.5,464.5C 151.833,464.5 151.5,464.167 151.5,463.5C 151.611,462.883 151.944,462.383 152.5,462C 154.473,461.505 156.473,461.338 158.5,461.5 Z"/></g>
<g><path style="opacity:0.945" fill="#282829" d="M 162.5,461.5 C 164.483,461.157 165.817,461.824 166.5,463.5C 161.819,463.669 157.152,464.002 152.5,464.5C 155.78,463.288 159.113,462.288 162.5,461.5 Z"/></g>
<g><path style="opacity:1" fill="#787874" d="M 166.5,463.5 C 170.833,464.167 175.167,464.833 179.5,465.5C 170.318,465.827 161.318,465.493 152.5,464.5C 157.152,464.002 161.819,463.669 166.5,463.5 Z"/></g>
<g><path style="opacity:1" fill="#403f38" d="M 175.5,462.5 C 179.167,462.5 182.833,462.5 186.5,462.5C 186.5,465.5 186.5,468.5 186.5,471.5C 175.789,471.147 165.123,471.147 154.5,471.5C 152.821,471.715 151.821,471.048 151.5,469.5C 154.876,468.392 158.376,467.725 162,467.5C 167.74,469.024 173.574,469.691 179.5,469.5C 179.5,468.167 179.5,466.833 179.5,465.5C 175.167,464.833 170.833,464.167 166.5,463.5C 169.713,463.81 172.713,463.477 175.5,462.5 Z"/></g>
<g><path style="opacity:1" fill="#e2e1d6" d="M 151.5,463.5 C 151.5,464.167 151.833,464.5 152.5,464.5C 161.318,465.493 170.318,465.827 179.5,465.5C 179.5,466.833 179.5,468.167 179.5,469.5C 173.574,469.691 167.74,469.024 162,467.5C 158.376,467.725 154.876,468.392 151.5,469.5C 150.709,467.309 150.709,465.309 151.5,463.5 Z"/></g>
<g><path style="opacity:1" fill="#979687" d="M 175.5,462.5 C 179.298,461.517 183.298,461.183 187.5,461.5C 187.5,465.167 187.5,468.833 187.5,472.5C 180.833,472.5 174.167,472.5 167.5,472.5C 166.833,472.5 166.167,472.5 165.5,472.5C 161.629,472.815 157.962,472.482 154.5,471.5C 165.123,471.147 175.789,471.147 186.5,471.5C 186.5,468.5 186.5,465.5 186.5,462.5C 182.833,462.5 179.167,462.5 175.5,462.5 Z"/></g>
<g><path style="opacity:0.453" fill="#d6d5d1" d="M 165.5,472.5 C 166.167,472.5 166.833,472.5 167.5,472.5C 167.5,476.5 167.5,480.5 167.5,484.5C 164.609,483.597 161.609,483.264 158.5,483.5C 160.556,482.784 162.723,482.117 165,481.5C 166.52,478.512 166.686,475.512 165.5,472.5 Z"/></g>
<g><path style="opacity:1" fill="#4b4b43" d="M 154.5,483.5 C 155.833,483.5 157.167,483.5 158.5,483.5C 161.609,483.264 164.609,483.597 167.5,484.5C 173.822,483.986 180.155,483.653 186.5,483.5C 186.5,487.167 186.5,490.833 186.5,494.5C 184.5,494.5 182.5,494.5 180.5,494.5C 174.69,493.51 168.69,493.177 162.5,493.5C 161.167,493.5 159.833,493.5 158.5,493.5C 160.305,491.803 162.639,490.97 165.5,491C 161.789,490.175 158.122,490.341 154.5,491.5C 155.602,492.176 156.602,492.842 157.5,493.5C 155.708,493.634 154.042,493.301 152.5,492.5C 152.414,491.504 152.748,490.671 153.5,490C 158.471,488.989 163.137,489.489 167.5,491.5C 170.167,491.5 172.833,491.5 175.5,491.5C 176.833,491.5 178.167,491.5 179.5,491.5C 179.5,489.833 179.5,488.167 179.5,486.5C 171.629,486.042 163.795,486.042 156,486.5C 153.422,486.318 152.922,485.318 154.5,483.5 Z"/></g>
<g><path style="opacity:1" fill="#f5f2d7" d="M 554.5,92.5 C 555.117,92.6107 555.617,92.944 556,93.5C 556.82,147.676 557.32,201.676 557.5,255.5C 557.737,383.5 558.07,511.5 558.5,639.5C 557.5,639.5 556.5,639.5 555.5,639.5C 555.337,546.165 555.67,452.832 556.5,359.5C 556.017,271.333 555.35,183.333 554.5,95.5C 554.5,94.5 554.5,93.5 554.5,92.5 Z"/></g>
<g><path style="opacity:0.543" fill="#b8b9b7" d="M 154.5,483.5 C 152.922,485.318 153.422,486.318 156,486.5C 163.795,486.042 171.629,486.042 179.5,486.5C 179.5,488.167 179.5,489.833 179.5,491.5C 178.167,491.5 176.833,491.5 175.5,491.5C 176.234,490.292 176.567,488.959 176.5,487.5C 173.5,487.5 170.5,487.5 167.5,487.5C 167.5,488.833 167.5,490.167 167.5,491.5C 163.137,489.489 158.471,488.989 153.5,490C 152.748,490.671 152.414,491.504 152.5,492.5C 151.366,490.034 151.199,487.367 152,484.5C 152.671,483.748 153.504,483.414 154.5,483.5 Z"/></g>
<g><path style="opacity:1" fill="#f3f1e1" d="M 175.5,491.5 C 172.833,491.5 170.167,491.5 167.5,491.5C 167.5,490.167 167.5,488.833 167.5,487.5C 170.5,487.5 173.5,487.5 176.5,487.5C 176.567,488.959 176.234,490.292 175.5,491.5 Z"/></g>
<g><path style="opacity:0.902" fill="#232524" d="M 158.5,493.5 C 158.167,493.5 157.833,493.5 157.5,493.5C 156.602,492.842 155.602,492.176 154.5,491.5C 158.122,490.341 161.789,490.175 165.5,491C 162.639,490.97 160.305,491.803 158.5,493.5 Z"/></g>
<g><path style="opacity:0.567" fill="#ceccc7" d="M 162.5,493.5 C 168.69,493.177 174.69,493.51 180.5,494.5C 176.167,494.5 171.833,494.5 167.5,494.5C 167.5,498.5 167.5,502.5 167.5,506.5C 164.272,505.586 160.939,505.253 157.5,505.5C 159.893,504.79 162.393,504.123 165,503.5C 165.498,500.518 165.665,497.518 165.5,494.5C 164.209,494.737 163.209,494.404 162.5,493.5 Z"/></g>
<g><path style="opacity:0.957" fill="#53524e" d="M 157.5,505.5 C 160.939,505.253 164.272,505.586 167.5,506.5C 174.022,506.177 180.355,506.51 186.5,507.5C 179.978,507.177 173.645,507.51 167.5,508.5C 165.167,508.5 162.833,508.5 160.5,508.5C 157.5,508.5 154.5,508.5 151.5,508.5C 151.414,507.504 151.748,506.671 152.5,506C 154.134,505.506 155.801,505.34 157.5,505.5 Z"/></g>
<g><path style="opacity:1" fill="#d8d8d7" d="M 151.5,508.5 C 154.5,508.5 157.5,508.5 160.5,508.5C 161.263,509.268 162.263,509.768 163.5,510C 162.944,510.383 162.611,510.883 162.5,511.5C 158.513,511.01 154.846,511.676 151.5,513.5C 151.5,511.833 151.5,510.167 151.5,508.5 Z"/></g>
<g><path style="opacity:1" fill="#b2b0aa" d="M 160.5,508.5 C 162.833,508.5 165.167,508.5 167.5,508.5C 171.5,508.5 175.5,508.5 179.5,508.5C 179.5,510.5 179.5,512.5 179.5,514.5C 175.5,514.5 171.5,514.5 167.5,514.5C 166.833,514.5 166.5,514.167 166.5,513.5C 169.833,513.5 173.167,513.5 176.5,513.5C 176.5,512.167 176.5,510.833 176.5,509.5C 172.671,508.931 169.337,509.598 166.5,511.5C 165.167,511.5 163.833,511.5 162.5,511.5C 162.611,510.883 162.944,510.383 163.5,510C 162.263,509.768 161.263,509.268 160.5,508.5 Z"/></g>
<g><path style="opacity:1" fill="#f7f5e4" d="M 166.5,513.5 C 166.5,512.833 166.5,512.167 166.5,511.5C 169.337,509.598 172.671,508.931 176.5,509.5C 176.5,510.833 176.5,512.167 176.5,513.5C 173.167,513.5 169.833,513.5 166.5,513.5 Z"/></g>
<g><path style="opacity:1" fill="#3f3d31" d="M 167.5,508.5 C 173.645,507.51 179.978,507.177 186.5,507.5C 186.5,510.5 186.5,513.5 186.5,516.5C 182.833,516.5 179.167,516.5 175.5,516.5C 173.052,515.527 170.385,515.194 167.5,515.5C 167.5,515.167 167.5,514.833 167.5,514.5C 171.5,514.5 175.5,514.5 179.5,514.5C 179.5,512.5 179.5,510.5 179.5,508.5C 175.5,508.5 171.5,508.5 167.5,508.5 Z"/></g>
<g><path style="opacity:0.925" fill="#484748" d="M 162.5,511.5 C 163.833,511.5 165.167,511.5 166.5,511.5C 166.5,512.167 166.5,512.833 166.5,513.5C 166.5,514.167 166.833,514.5 167.5,514.5C 167.5,514.833 167.5,515.167 167.5,515.5C 163.833,515.5 160.167,515.5 156.5,515.5C 154.302,515.88 152.635,515.213 151.5,513.5C 154.846,511.676 158.513,511.01 162.5,511.5 Z"/></g>
<g><path style="opacity:0.063" fill="#b1b0ad" d="M 156.5,515.5 C 160.167,515.5 163.833,515.5 167.5,515.5C 170.385,515.194 173.052,515.527 175.5,516.5C 172.5,516.5 169.5,516.5 166.5,516.5C 166.372,520.881 166.705,525.215 167.5,529.5C 167.167,529.5 166.833,529.5 166.5,529.5C 165.448,527.744 163.781,527.077 161.5,527.5C 160.833,527.5 160.167,527.5 159.5,527.5C 161.218,526.776 163.052,526.109 165,525.5C 165.667,522.833 165.667,520.167 165,517.5C 162.061,516.872 159.228,516.205 156.5,515.5 Z"/></g>
<g><path style="opacity:0.598" fill="#e4e4e4" d="M 151.5,529.5 C 153.988,531.388 156.988,532.055 160.5,531.5C 158.492,533.083 156.159,534.083 153.5,534.5C 152.833,534.833 152.167,535.167 151.5,535.5C 150.661,534.359 149.994,533.026 149.5,531.5C 149.855,530.478 150.522,529.811 151.5,529.5 Z"/></g>
<g><path style="opacity:1" fill="#737165" d="M 186.5,539.5 C 180.811,539.468 175.145,539.134 169.5,538.5C 168.833,538.5 168.167,538.5 167.5,538.5C 166.833,538.5 166.167,538.5 165.5,538.5C 161.629,538.815 157.962,538.482 154.5,537.5C 161.462,537.054 168.462,536.887 175.5,537C 172.635,536.817 169.969,536.317 167.5,535.5C 170.5,535.5 173.5,535.5 176.5,535.5C 177.5,535.5 178.5,535.5 179.5,535.5C 179.5,536.5 179.5,537.5 179.5,538.5C 181.5,538.5 183.5,538.5 185.5,538.5C 185.5,535.5 185.5,532.5 185.5,529.5C 178.999,530.379 172.666,530.379 166.5,529.5C 166.833,529.5 167.167,529.5 167.5,529.5C 173.822,528.986 180.155,528.653 186.5,528.5C 186.5,532.167 186.5,535.833 186.5,539.5 Z"/></g>
<g><path style="opacity:1" fill="#737472" d="M 159.5,527.5 C 160.167,527.5 160.833,527.5 161.5,527.5C 159.26,528.264 156.927,529.098 154.5,530C 156.713,530.626 158.88,530.459 161,529.5C 162.684,529.683 162.85,530.35 161.5,531.5C 161.167,531.5 160.833,531.5 160.5,531.5C 156.988,532.055 153.988,531.388 151.5,529.5C 151.611,528.883 151.944,528.383 152.5,528C 154.81,527.503 157.143,527.337 159.5,527.5 Z"/></g>
<g><path style="opacity:1" fill="#3d3b36" d="M 161.5,527.5 C 163.781,527.077 165.448,527.744 166.5,529.5C 172.666,530.379 178.999,530.379 185.5,529.5C 185.5,532.5 185.5,535.5 185.5,538.5C 183.5,538.5 181.5,538.5 179.5,538.5C 179.5,537.5 179.5,536.5 179.5,535.5C 179.5,534.167 179.5,532.833 179.5,531.5C 173.5,531.5 167.5,531.5 161.5,531.5C 162.85,530.35 162.684,529.683 161,529.5C 158.88,530.459 156.713,530.626 154.5,530C 156.927,529.098 159.26,528.264 161.5,527.5 Z"/></g>
<g><path style="opacity:1" fill="#a7a7a5" d="M 160.5,531.5 C 160.833,531.5 161.167,531.5 161.5,531.5C 167.5,531.5 173.5,531.5 179.5,531.5C 179.5,532.833 179.5,534.167 179.5,535.5C 178.5,535.5 177.5,535.5 176.5,535.5C 176.5,534.5 176.5,533.5 176.5,532.5C 172.671,531.931 169.337,532.598 166.5,534.5C 162.167,534.5 157.833,534.5 153.5,534.5C 156.159,534.083 158.492,533.083 160.5,531.5 Z"/></g>
<g><path style="opacity:1" fill="#f1efe4" d="M 176.5,535.5 C 173.5,535.5 170.5,535.5 167.5,535.5C 166.833,535.5 166.5,535.167 166.5,534.5C 169.337,532.598 172.671,531.931 176.5,532.5C 176.5,533.5 176.5,534.5 176.5,535.5 Z"/></g>
<g><path style="opacity:0.951" fill="#373735" d="M 153.5,534.5 C 157.833,534.5 162.167,534.5 166.5,534.5C 166.5,535.167 166.833,535.5 167.5,535.5C 169.969,536.317 172.635,536.817 175.5,537C 168.462,536.887 161.462,537.054 154.5,537.5C 152.821,537.715 151.821,537.048 151.5,535.5C 152.167,535.167 152.833,534.833 153.5,534.5 Z"/></g>
<g><path style="opacity:0.968" fill="#e9e7d5" d="M 559.5,154.5 C 559.333,315.167 559.5,475.834 560,636.5C 560.383,637.056 560.883,637.389 561.5,637.5C 561.293,640.241 560.293,642.574 558.5,644.5C 558.5,643.833 558.5,643.167 558.5,642.5C 558.5,641.5 558.5,640.5 558.5,639.5C 558.07,511.5 557.737,383.5 557.5,255.5C 557.566,221.66 558.233,187.993 559.5,154.5 Z"/></g>
<g><path style="opacity:0.802" fill="#c8c7c2" d="M 165.5,538.5 C 166.167,538.5 166.833,538.5 167.5,538.5C 167.5,542.5 167.5,546.5 167.5,550.5C 170.167,550.5 172.833,550.5 175.5,550.5C 175.5,550.833 175.5,551.167 175.5,551.5C 167.131,550.495 158.797,550.495 150.5,551.5C 150.611,550.883 150.944,550.383 151.5,550C 155.951,549.87 160.284,549.204 164.5,548C 165.451,544.943 165.784,541.777 165.5,538.5 Z"/></g>
<g><path style="opacity:1" fill="#474640" d="M 175.5,551.5 C 178.833,551.5 182.167,551.5 185.5,551.5C 185.5,554.5 185.5,557.5 185.5,560.5C 182.167,560.5 178.833,560.5 175.5,560.5C 172.833,560.5 170.167,560.5 167.5,560.5C 166.5,560.5 165.5,560.5 164.5,560.5C 159.821,560.666 155.155,560.499 150.5,560C 149.226,559.023 149.226,558.189 150.5,557.5C 150.833,557.5 151.167,557.5 151.5,557.5C 153.81,556.836 156.31,556.503 159,556.5C 165.788,557.724 172.622,558.391 179.5,558.5C 179.5,556.833 179.5,555.167 179.5,553.5C 178.167,553.5 176.833,553.5 175.5,553.5C 172.833,553.5 170.167,553.5 167.5,553.5C 163.227,552.302 158.893,552.302 154.5,553.5C 152.645,553.66 151.312,552.993 150.5,551.5C 158.797,550.495 167.131,550.495 175.5,551.5 Z"/></g>
<g><path style="opacity:1" fill="#6f6d5d" d="M 175.5,551.5 C 175.5,551.167 175.5,550.833 175.5,550.5C 179.167,550.5 182.833,550.5 186.5,550.5C 186.5,554.167 186.5,557.833 186.5,561.5C 182.629,561.815 178.962,561.482 175.5,560.5C 178.833,560.5 182.167,560.5 185.5,560.5C 185.5,557.5 185.5,554.5 185.5,551.5C 182.167,551.5 178.833,551.5 175.5,551.5 Z"/></g>
<g><path style="opacity:1" fill="#c6c6c4" d="M 150.5,551.5 C 151.312,552.993 152.645,553.66 154.5,553.5C 158.893,552.302 163.227,552.302 167.5,553.5C 167.5,554.833 167.5,556.167 167.5,557.5C 170.5,557.5 173.5,557.5 176.5,557.5C 176.567,556.041 176.234,554.708 175.5,553.5C 176.833,553.5 178.167,553.5 179.5,553.5C 179.5,555.167 179.5,556.833 179.5,558.5C 172.622,558.391 165.788,557.724 159,556.5C 156.31,556.503 153.81,556.836 151.5,557.5C 151.167,557.5 150.833,557.5 150.5,557.5C 149.709,555.309 149.709,553.309 150.5,551.5 Z"/></g>
<g><path style="opacity:1" fill="#f4f2e1" d="M 167.5,553.5 C 170.167,553.5 172.833,553.5 175.5,553.5C 176.234,554.708 176.567,556.041 176.5,557.5C 173.5,557.5 170.5,557.5 167.5,557.5C 167.5,556.167 167.5,554.833 167.5,553.5 Z"/></g>
<g><path style="opacity:0.963" fill="#252525" d="M 151.5,557.5 C 156.179,557.334 160.845,557.501 165.5,558C 161.646,558.354 157.812,558.854 154,559.5C 152.624,559.316 151.791,558.649 151.5,557.5 Z"/></g>
<g><path style="opacity:1" fill="#f4f3da" d="M 167.5,538.5 C 168.167,538.5 168.833,538.5 169.5,538.5C 169.704,541.518 170.037,544.518 170.5,547.5C 172.912,547.331 175.079,547.997 177,549.5C 182.818,547.278 187.651,548.444 191.5,553C 188.783,555.977 187.116,559.477 186.5,563.5C 181.955,564.553 177.455,564.22 173,562.5C 170.042,563.908 169.208,566.075 170.5,569C 176.859,569.169 183.193,569.669 189.5,570.5C 191.005,571.842 191.672,573.508 191.5,575.5C 190.5,575.5 189.5,575.5 188.5,575.5C 188.45,578.198 189.45,580.364 191.5,582C 190.833,582.667 190.167,583.333 189.5,584C 184.833,584.333 180.167,584.667 175.5,585C 174.567,587.848 173.067,588.014 171,585.5C 170.174,588.793 169.674,592.126 169.5,595.5C 167.57,591.627 166.903,587.294 167.5,582.5C 174.001,583.379 180.334,583.379 186.5,582.5C 186.5,579.5 186.5,576.5 186.5,573.5C 180.167,573.5 173.833,573.5 167.5,573.5C 167.5,569.167 167.5,564.833 167.5,560.5C 170.167,560.5 172.833,560.5 175.5,560.5C 178.962,561.482 182.629,561.815 186.5,561.5C 186.5,557.833 186.5,554.167 186.5,550.5C 182.833,550.5 179.167,550.5 175.5,550.5C 172.833,550.5 170.167,550.5 167.5,550.5C 167.5,546.5 167.5,542.5 167.5,538.5 Z"/></g>
<g><path style="opacity:0.447" fill="#c9c9c6" d="M 164.5,560.5 C 165.5,560.5 166.5,560.5 167.5,560.5C 167.5,564.833 167.5,569.167 167.5,573.5C 164.272,572.586 160.939,572.253 157.5,572.5C 159.893,571.79 162.393,571.123 165,570.5C 167.101,566.943 166.934,563.61 164.5,560.5 Z"/></g>
<g><path style="opacity:1" fill="#c4c4c2" d="M 151.5,573.5 C 160.44,575.472 169.773,576.139 179.5,575.5C 179.5,577.167 179.5,578.833 179.5,580.5C 178.167,580.5 176.833,580.5 175.5,580.5C 176.234,579.292 176.567,577.959 176.5,576.5C 173.5,576.5 170.5,576.5 167.5,576.5C 167.5,577.833 167.5,579.167 167.5,580.5C 161.852,577.878 156.185,577.878 150.5,580.5C 150.739,578.533 150.406,576.699 149.5,575C 150.044,574.283 150.711,573.783 151.5,573.5 Z"/></g>
<g><path style="opacity:1" fill="#f1efdd" d="M 175.5,580.5 C 175.167,580.5 174.833,580.5 174.5,580.5C 172.167,580.5 169.833,580.5 167.5,580.5C 167.5,579.167 167.5,577.833 167.5,576.5C 170.5,576.5 173.5,576.5 176.5,576.5C 176.567,577.959 176.234,579.292 175.5,580.5 Z"/></g>
<g><path style="opacity:1" fill="#5a584e" d="M 167.5,580.5 C 169.833,580.5 172.167,580.5 174.5,580.5C 174.918,581.222 175.584,581.722 176.5,582C 179.817,582.498 183.15,582.665 186.5,582.5C 180.334,583.379 174.001,583.379 167.5,582.5C 165.265,582.205 163.265,582.539 161.5,583.5C 160.292,582.766 158.959,582.433 157.5,582.5C 159.658,580.78 162.325,579.947 165.5,580C 161.5,579.333 157.5,579.333 153.5,580C 152.748,580.671 152.414,581.504 152.5,582.5C 151.5,582.167 150.833,581.5 150.5,580.5C 156.185,577.878 161.852,577.878 167.5,580.5 Z"/></g>
<g><path style="opacity:0.569" fill="#3a3a3b" d="M 157.5,582.5 C 156.001,583.494 154.334,583.494 152.5,582.5C 152.414,581.504 152.748,580.671 153.5,580C 157.5,579.333 161.5,579.333 165.5,580C 162.325,579.947 159.658,580.78 157.5,582.5 Z"/></g>
<g><path style="opacity:1" fill="#403e38" d="M 157.5,572.5 C 160.939,572.253 164.272,572.586 167.5,573.5C 173.833,573.5 180.167,573.5 186.5,573.5C 186.5,576.5 186.5,579.5 186.5,582.5C 183.15,582.665 179.817,582.498 176.5,582C 175.584,581.722 174.918,581.222 174.5,580.5C 174.833,580.5 175.167,580.5 175.5,580.5C 176.833,580.5 178.167,580.5 179.5,580.5C 179.5,578.833 179.5,577.167 179.5,575.5C 169.773,576.139 160.44,575.472 151.5,573.5C 153.265,572.539 155.265,572.205 157.5,572.5 Z"/></g>
<g><path style="opacity:0.494" fill="#cdccc4" d="M 161.5,583.5 C 163.265,582.539 165.265,582.205 167.5,582.5C 166.903,587.294 167.57,591.627 169.5,595.5C 171.5,595.5 173.5,595.5 175.5,595.5C 175.5,595.833 175.5,596.167 175.5,596.5C 170.43,596.261 165.43,595.595 160.5,594.5C 161.878,593.766 163.378,593.099 165,592.5C 166.195,589.813 166.362,587.146 165.5,584.5C 164.311,583.571 162.978,583.238 161.5,583.5 Z"/></g>
<g><path style="opacity:0.459" fill="#797979" d="M 160.5,594.5 C 158.513,595.343 156.346,596.01 154,596.5C 152.97,596.836 152.47,597.503 152.5,598.5C 151.596,597.791 151.263,596.791 151.5,595.5C 154.43,594.701 157.43,594.368 160.5,594.5 Z"/></g>
<g><path style="opacity:1" fill="#d3d3d3" d="M 151.5,595.5 C 151.263,596.791 151.596,597.791 152.5,598.5C 156.182,598.335 159.848,598.501 163.5,599C 159.496,599.997 155.496,600.831 151.5,601.5C 150.427,599.347 150.427,597.347 151.5,595.5 Z"/></g>
<g><path style="opacity:0.982" fill="#454540" d="M 160.5,594.5 C 165.43,595.595 170.43,596.261 175.5,596.5C 178.833,596.5 182.167,596.5 185.5,596.5C 184.936,604.489 182.936,605.156 179.5,598.5C 175.486,598.334 171.486,598.501 167.5,599C 166.663,600.011 166.33,601.178 166.5,602.5C 170.647,603.325 174.981,603.825 179.5,604C 178.207,604.49 176.873,604.657 175.5,604.5C 173.833,604.5 172.167,604.5 170.5,604.5C 166.333,603.595 162.333,603.595 158.5,604.5C 156.274,605.559 153.941,605.392 151.5,604C 150.226,603.023 150.226,602.189 151.5,601.5C 155.496,600.831 159.496,599.997 163.5,599C 159.848,598.501 156.182,598.335 152.5,598.5C 152.47,597.503 152.97,596.836 154,596.5C 156.346,596.01 158.513,595.343 160.5,594.5 Z"/></g>
<g><path style="opacity:1" fill="#e5e3db" d="M 179.5,598.5 C 179.5,599.833 179.5,601.167 179.5,602.5C 175.167,602.5 170.833,602.5 166.5,602.5C 166.33,601.178 166.663,600.011 167.5,599C 171.486,598.501 175.486,598.334 179.5,598.5 Z"/></g>
<g><path style="opacity:1" fill="#5c5b4e" d="M 175.5,596.5 C 175.5,596.167 175.5,595.833 175.5,595.5C 179.167,595.5 182.833,595.5 186.5,595.5C 186.5,598.833 186.5,602.167 186.5,605.5C 182.629,605.815 178.962,605.482 175.5,604.5C 176.873,604.657 178.207,604.49 179.5,604C 174.981,603.825 170.647,603.325 166.5,602.5C 170.833,602.5 175.167,602.5 179.5,602.5C 179.5,601.167 179.5,599.833 179.5,598.5C 182.936,605.156 184.936,604.489 185.5,596.5C 182.167,596.5 178.833,596.5 175.5,596.5 Z"/></g>
<g><path style="opacity:0.161" fill="#807f7e" d="M 158.5,604.5 C 162.333,603.595 166.333,603.595 170.5,604.5C 169.081,605.451 167.415,605.784 165.5,605.5C 163.097,605.552 160.764,605.219 158.5,604.5 Z"/></g>
<g><path style="opacity:1" fill="#f2f0d8" d="M 186.5,628.5 C 186.5,624.833 186.5,621.167 186.5,617.5C 182.629,617.185 178.962,617.518 175.5,618.5C 171.766,618.677 168.099,618.344 164.5,617.5C 166.587,613.647 166.92,609.647 165.5,605.5C 167.415,605.784 169.081,605.451 170.5,604.5C 172.167,604.5 173.833,604.5 175.5,604.5C 178.962,605.482 182.629,605.815 186.5,605.5C 186.5,602.167 186.5,598.833 186.5,595.5C 182.833,595.5 179.167,595.5 175.5,595.5C 178.587,594.947 181.087,593.28 183,590.5C 184.84,591.833 185.34,591.666 184.5,590C 186.833,589.333 189.167,589.333 191.5,590C 190.663,591.011 190.33,592.178 190.5,593.5C 189.448,593.351 188.448,593.517 187.5,594C 189.929,594.451 190.096,595.285 188,596.5C 187.824,599.882 187.324,603.215 186.5,606.5C 181.23,607.451 175.897,607.785 170.5,607.5C 170.187,610.247 170.52,612.914 171.5,615.5C 172.478,615.023 173.311,614.357 174,613.5C 174.368,614.91 175.201,615.91 176.5,616.5C 178.893,614.637 181.56,613.304 184.5,612.5C 186.009,614.424 188.009,615.591 190.5,616C 188.979,619.644 188.145,623.477 188,627.5C 187.617,628.056 187.117,628.389 186.5,628.5 Z"/></g>
<g><path style="opacity:1" fill="#45453e" d="M 163.5,617.5 C 163.833,617.5 164.167,617.5 164.5,617.5C 168.099,618.344 171.766,618.677 175.5,618.5C 178.833,618.5 182.167,618.5 185.5,618.5C 185.5,621.5 185.5,624.5 185.5,627.5C 182.167,627.5 178.833,627.5 175.5,627.5C 171.366,626.515 167.032,626.182 162.5,626.5C 159.391,626.736 156.391,626.403 153.5,625.5C 153.33,624.178 153.663,623.011 154.5,622C 162.167,621.187 161.834,620.521 153.5,620C 156.909,619.004 160.242,618.171 163.5,617.5 Z"/></g>
<g><path style="opacity:0.375" fill="#a4a5a4" d="M 163.5,617.5 C 160.242,618.171 156.909,619.004 153.5,620C 161.834,620.521 162.167,621.187 154.5,622C 153.663,623.011 153.33,624.178 153.5,625.5C 152.733,624.828 152.066,623.995 151.5,623C 151.616,621.732 151.949,620.398 152.5,619C 156.026,617.663 159.692,617.163 163.5,617.5 Z"/></g>
<g><path style="opacity:1" fill="#72705e" d="M 175.5,618.5 C 178.962,617.518 182.629,617.185 186.5,617.5C 186.5,621.167 186.5,624.833 186.5,628.5C 182.629,628.815 178.962,628.482 175.5,627.5C 178.833,627.5 182.167,627.5 185.5,627.5C 185.5,624.5 185.5,621.5 185.5,618.5C 182.167,618.5 178.833,618.5 175.5,618.5 Z"/></g>
<g><path style="opacity:1" fill="#e8e7da" d="M 166.5,620.5 C 170.833,620.5 175.167,620.5 179.5,620.5C 179.5,621.833 179.5,623.167 179.5,624.5C 175.167,624.5 170.833,624.5 166.5,624.5C 166.5,623.167 166.5,621.833 166.5,620.5 Z"/></g>
<g><path style="opacity:0.98" fill="#f4f2da" d="M 176.5,643.5 C 303.666,642.5 430.999,642.167 558.5,642.5C 558.5,643.167 558.5,643.833 558.5,644.5C 523.337,645.498 488.004,645.832 452.5,645.5C 360.671,643.991 268.671,643.325 176.5,643.5 Z"/></g>
<g><path style="opacity:0.868" fill="#f1efde" d="M 162.5,626.5 C 167.032,626.182 171.366,626.515 175.5,627.5C 172.833,627.5 170.167,627.5 167.5,627.5C 167.292,632.627 167.958,637.627 169.5,642.5C 171.743,643.474 174.076,643.808 176.5,643.5C 268.671,643.325 360.671,643.991 452.5,645.5C 359.236,646.194 265.903,646.361 172.5,646C 170.579,645.64 168.912,644.806 167.5,643.5C 166.717,638.553 166.217,633.553 166,628.5C 164.698,627.915 163.531,627.249 162.5,626.5 Z"/></g>
</svg>
